<?xml version="1.0" encoding="UTF-8"?>
<svg id="Layer_1" xmlns="http://www.w3.org/2000/svg" version="1.1" viewBox="0 0 100 24.7">
  <!-- Generator: Adobe Illustrator 30.2.1, SVG Export Plug-In . SVG Version: 2.1.1 Build 1)  -->
  <defs>
    <style>
      .st0 {
        fill: #1e75bb;
      }

      .st1 {
        fill: #fff;
      }

      .st2 {
        fill: #91298c;
      }

      .st3 {
        fill: #ed2d7b;
      }

      .st4 {
        fill: #4d4848;
      }

      .st5 {
        fill: #d6de27;
      }

      .st6 {
        fill: #f16623;
      }
    </style>
  </defs>
  <g>
    <path class="st1" d="M7.2,12.3h-.1c0,0,.1,0,.1,0Z"/>
    <g>
      <g>
        <path class="st4" d="M15.8,14.2c-.3,1.4-1.7,2.1-4.2,2.1h-4.8c-.5,0-.8-.2-.8-.6,0-.7.5-1,1.1-1h4.8c1.2,0,1.8-.3,1.9-.7v-.5c.1,0,.1,0,.1-.1,0-.4-.5-.6-1.4-.6h-2.4c-2,0-3.1-.5-3.1-1.5s0-.3,0-.4l.2-.8c.3-1.4,1.6-2.1,3.9-2.1h4.7c.5,0,.8.2.8.6,0,.7-.4,1-1.1,1h-4.7c-1,0-1.5.2-1.6.6v.5c-.1,0-.1,0-.1,0,0,.3.4.5,1.3.5h2.3c2.2,0,3.3.6,3.3,1.7s0,.3,0,.4l-.2.8Z"/>
        <path class="st4" d="M28.2,11.4c-.3,1.5-1.8,2.3-4.4,2.3h-4.4l-.4,1.9c-.1.5-.5.8-1.2.8s-.8-.2-.8-.6,0-.1,0-.2l1.5-6.8c0-.4.4-.6.9-.6h5.6c2.3,0,3.4.6,3.4,1.8s0,.3,0,.5l-.2,1ZM19.8,12.2h4.5c1.2,0,1.8-.3,1.9-.8l.2-.8s0,0,0-.1c0-.4-.5-.7-1.6-.7h-4.4c0,0-.1,0-.1.1l-.5,2.3Z"/>
        <path class="st4" d="M32.4,16.4c-2.1,0-3.2-.6-3.2-1.8s0-.3,0-.5l1.1-5.1c.1-.5.5-.8,1.2-.8s.9.2.9.6,0,.1,0,.2l-1.1,5.1s0,0,0,.1c0,.5.5.7,1.6.7h4.8c.5,0,.8.2.8.6,0,.7-.5,1-1.1,1h-4.9Z"/>
        <path class="st4" d="M48.3,14.4h-5.5l-1.3,1.5c-.3.4-.7.6-1.1.6-.6,0-.9-.2-.9-.6s0-.5.5-.9l5.8-6.3c.3-.3.7-.5,1.2-.5s.8.2.9.5l3.1,6.3c.1.2.2.4.2.5,0,.6-.5.9-1.3.9s-.6-.2-.8-.6l-.7-1.5ZM44,13h3.6l-1.2-2.7-2.4,2.7Z"/>
        <path class="st4" d="M61.8,14.2c-.3,1.4-1.7,2.1-4.2,2.1h-4.8c-.5,0-.8-.2-.8-.6,0-.7.5-1,1.1-1h4.8c1.2,0,1.8-.3,1.9-.7v-.5c.1,0,.1,0,.1-.1,0-.4-.5-.6-1.4-.6h-2.4c-2,0-3.1-.5-3.1-1.5s0-.3,0-.4l.2-.8c.3-1.4,1.6-2.1,3.9-2.1h4.7c.5,0,.8.2.8.6,0,.7-.4,1-1.1,1h-4.7c-1,0-1.5.2-1.6.6v.5c-.1,0-.1,0-.1,0,0,.3.4.5,1.3.5h2.3c2.2,0,3.3.6,3.3,1.7s0,.3,0,.4l-.2.8Z"/>
        <path class="st4" d="M71.9,13.1h-6.2l-.5,2.5c-.1.5-.5.8-1.2.8s-.8-.2-.8-.6,0-.1,0-.2l1.4-6.7c.1-.5.5-.8,1.2-.8s.8.2.8.6,0,.2,0,.2l-.6,2.6h6.2l.6-2.6c.1-.5.5-.8,1.2-.8s.9.2.9.6,0,.1,0,.2l-1.4,6.7c-.1.5-.5.8-1.2.8s-.8-.2-.8-.6,0-.1,0-.2l.5-2.5Z"/>
      </g>
      <g>
        <path class="st6" d="M11.2,2.9v.4h-1.1l-.7,2.8h-.9l.7-2.8h-1v-.4h3Z"/>
        <path class="st6" d="M14.6,3.5l-.2.7c0,.3-.3.5-.6.5l.2,1.4h-1l-.2-1.4h-.7l-.3,1.4h-.9l.8-3.2h2.5c.3,0,.5.1.5.4s0,.1,0,.2ZM13.7,3.5s0,0,0,0c0,0,0-.1-.1-.1h-1.1l-.2,1h1.1c.1,0,.2,0,.2-.2v-.5Z"/>
        <path class="st6" d="M18.1,6.1h-1l-.2-.9h-1.5l-.6.9h-.4l2.2-3.2h.8l.7,3.2ZM16.9,4.8l-.2-1.2-.8,1.2h1.1Z"/>
        <path class="st6" d="M20.4,2.9l-.8,3.2h-.9l.8-3.2h.9Z"/>
        <path class="st6" d="M24.1,2.9l-.8,3.2h-1.1l-1-2.6h0l-.6,2.6h-.4l.8-3.2h1.1l1,2.5h0l.6-2.5h.4Z"/>
        <path class="st6" d="M25.7,2.9l-.8,3.2h-.9l.8-3.2h.9Z"/>
        <path class="st6" d="M29.4,2.9l-.8,3.2h-1.1l-1-2.6h0l-.6,2.6h-.4l.8-3.2h1.1l1,2.5h0l.6-2.5h.4Z"/>
        <path class="st6" d="M33.1,2.9v.4h-2.1c-.1,0-.2,0-.2.2l-.5,2s0,0,0,0c0,0,0,0,.1,0h1c0,0,.1,0,.2-.1l.2-1h-1.1v-.4h2.1l-.5,1.9h-.8v-.3c0,0,0,0,0,0,0,.2-.2.3-.4.3h-1.3c-.3,0-.5-.1-.5-.4s0-.1,0-.2l.5-1.9c.1-.4.4-.6.8-.6h2.4Z"/>
      </g>
      <g>
        <path class="st4" d="M5.5,20.7v.5c-.1.1-.2.2-.3.2s-.2,0-.2-.1,0,0,0,0v-.5c.1,0-.4-.6-.4-.6,0,0,0,0,0-.1,0-.1.1-.2.2-.2s.1,0,.2,0l.5.6.7-.6c0,0,.1,0,.2,0s.2,0,.2.1,0,.1-.1.2l-.8.6Z"/>
        <path class="st4" d="M7,21.4c-.4,0-.6-.1-.6-.3s0,0,0-.1v-.7c.2-.3.5-.4.9-.4h.5c.4,0,.6.1.6.3s0,0,0,0v.7c-.2.3-.5.4-.9.4h-.5ZM8.1,20.2s0,0,0,0c0,0,0-.1-.3-.1h-.5c-.2,0-.3,0-.3.1v.7c-.1,0-.1,0-.1,0,0,0,0,.1.3.1h.5c.2,0,.3,0,.3-.2v-.7Z"/>
        <path class="st4" d="M9.3,21.4c-.4,0-.6-.1-.6-.3s0,0,0-.1l.2-1c0-.1,0-.2.2-.2s.2,0,.2.1,0,0,0,0l-.2,1s0,0,0,0c0,0,.1.1.3.1h.5c.2,0,.3,0,.4-.2l.2-1c0-.1.1-.2.2-.2s.2,0,.2.1,0,0,0,0l-.2,1c0,.3-.3.5-.8.5h-.5Z"/>
        <path class="st4" d="M11.4,20.8v.4c-.1.1-.2.2-.3.2s-.2,0-.2-.1,0,0,0,0l.3-1.3c0,0,0-.1.2-.1h1.1c.4,0,.7.1.7.3s0,0,0,0h0c0,.4-.3.6-.8.6h-.2l.7.3c0,0,0,0,0,.1,0,.1-.1.2-.2.2s0,0-.1,0l-1-.6ZM11.5,20.5h.9c.2,0,.3,0,.4-.1h0c0-.1,0-.1,0-.2,0,0-.1-.1-.3-.1h-.8s0,0,0,0v.4Z"/>
        <path class="st4" d="M14.8,21.4c-.4,0-.6-.1-.6-.3s0,0,0-.1l.2-.7c0-.3.3-.4.8-.4h.9c0,0,.1,0,.1.1,0,.1,0,.2-.2.2h-.9c-.2,0-.3,0-.3.1v.7c-.1,0-.1,0-.1,0,0,0,.1.1.3.1h.8c0,0,.1,0,.1.1,0,.1,0,.2-.2.2h-.9Z"/>
        <path class="st4" d="M16.8,21.4c-.4,0-.6-.1-.6-.3s0,0,0-.1v-.7c.2-.3.5-.4.9-.4h.5c.4,0,.6.1.6.3s0,0,0,0v.7c-.2.3-.5.4-.9.4h-.5ZM17.9,20.2s0,0,0,0c0,0,0-.1-.3-.1h-.5c-.2,0-.3,0-.3.1v.7c-.1,0-.1,0-.1,0,0,0,0,.1.3.1h.5c.2,0,.3,0,.3-.2v-.7Z"/>
        <path class="st4" d="M20.9,20.4l-.9.9s-.1.1-.2.1-.2,0-.2-.1l-.5-.9-.2.8c0,.1,0,.2-.2.2s-.2,0-.2-.1,0,0,0,0l.3-1.3c0-.1.1-.2.2-.2s.2,0,.2.1l.6,1.1,1.1-1.1c0,0,.1-.1.3-.1.1,0,.2,0,.2.1s0,0,0,0l-.3,1.3c0,.1,0,.2-.2.2s-.2,0-.2-.1,0,0,0,0l.2-.8Z"/>
        <path class="st4" d="M23.6,20.4c0,.3-.3.4-.8.4h-.8v.4c-.1.1-.2.2-.3.2s-.2,0-.2-.1,0,0,0,0l.3-1.3c0,0,0-.1.2-.1h1.1c.4,0,.7.1.7.4s0,0,0,0v.2ZM22,20.5h.9c.2,0,.3,0,.4-.2v-.2s0,0,0,0c0,0-.1-.1-.3-.1h-.8s0,0,0,0v.5Z"/>
        <path class="st4" d="M25.1,21h-1.1l-.2.3c0,0-.1.1-.2.1-.1,0-.2,0-.2-.1s0,0,0-.2l1.1-1.2c0,0,.1-.1.2-.1s.1,0,.2.1l.6,1.2s0,0,0,.1c0,.1-.1.2-.2.2s-.1,0-.2-.1v-.3ZM24.2,20.7h.7l-.2-.5-.5.5Z"/>
        <path class="st4" d="M26.5,19.8l1,1,.2-.9c0-.1.1-.2.2-.2s.2,0,.2.1,0,0,0,0l-.3,1.3c0,.1-.1.2-.2.2s-.1,0-.2,0l-1-1-.2.9c0,.1,0,.2-.2.2s-.2,0-.2-.1,0,0,0,0l.3-1.3c0-.1.1-.2.2-.2s.1,0,.2,0Z"/>
        <path class="st4" d="M28.5,19.9c0-.1.1-.2.2-.2s.2,0,.2.1,0,0,0,0l-.3,1.3c0,.1,0,.2-.2.2s-.2,0-.2-.1,0,0,0,0l.3-1.3Z"/>
        <path class="st4" d="M29.6,21.4c-.4,0-.6-.1-.6-.3s0,0,0-.1v-.7c.2-.3.5-.4.9-.4h.5c.4,0,.6.1.6.3s0,0,0,0v.7c-.2.3-.5.4-.9.4h-.5ZM30.7,20.2s0,0,0,0c0,0,0-.1-.3-.1h-.5c-.2,0-.3,0-.3.1v.7c-.1,0-.1,0-.1,0,0,0,0,.1.3.1h.5c.2,0,.3,0,.3-.2v-.7Z"/>
        <path class="st4" d="M31.9,19.8l1,1,.2-.9c0-.1.1-.2.2-.2s.2,0,.2.1,0,0,0,0l-.3,1.3c0,.1-.1.2-.2.2s-.1,0-.2,0l-1-1-.2.9c0,.1,0,.2-.2.2s-.2,0-.2-.1,0,0,0,0l.3-1.3c0-.1.1-.2.2-.2s.1,0,.2,0Z"/>
        <path class="st4" d="M34.7,20.2c0-.3.3-.4.8-.4h.9c0,0,.1,0,.1.1,0,.1,0,.2-.2.2h-.9c-.2,0-.3,0-.3.1v.2s1.2,0,1.2,0c0,0,.1,0,.1.1,0,.1,0,.2-.2.2h-1.2v.5c-.1.1-.2.2-.3.2s-.2,0-.2-.1,0,0,0,0l.2-1Z"/>
        <path class="st4" d="M37.2,21.4c-.4,0-.6-.1-.6-.3s0,0,0-.1v-.7c.2-.3.5-.4.9-.4h.5c.4,0,.6.1.6.3s0,0,0,0v.7c-.2.3-.5.4-.9.4h-.5ZM38.3,20.2s0,0,0,0c0,0,0-.1-.3-.1h-.5c-.2,0-.3,0-.3.1v.7c-.1,0-.1,0-.1,0,0,0,0,.1.3.1h.5c.2,0,.3,0,.3-.2v-.7Z"/>
        <path class="st4" d="M39.3,20.8v.4c-.1.1-.2.2-.3.2s-.2,0-.2-.1,0,0,0,0l.3-1.3c0,0,0-.1.2-.1h1.1c.4,0,.7.1.7.3s0,0,0,0h0c0,.4-.3.6-.8.6h-.2l.7.3c0,0,0,0,0,.1,0,.1-.1.2-.2.2s0,0-.1,0l-1-.6ZM39.4,20.5h.9c.2,0,.3,0,.4-.1h0c0-.1,0-.1,0-.2,0,0-.1-.1-.3-.1h-.8s0,0,0,0v.4Z"/>
        <path class="st4" d="M42.3,19.9c0-.1.1-.2.2-.2s.2,0,.2.1,0,0,0,0l-.3,1.3c0,.1,0,.2-.2.2s-.2,0-.2-.1,0,0,0,0l.3-1.3Z"/>
        <path class="st4" d="M45.2,20.4l-.9.9s-.1.1-.2.1-.2,0-.2-.1l-.5-.9-.2.8c0,.1,0,.2-.2.2s-.2,0-.2-.1,0,0,0,0l.3-1.3c0-.1.1-.2.2-.2s.2,0,.2.1l.6,1.1,1.1-1.1c0,0,.1-.1.3-.1.1,0,.2,0,.2.1s0,0,0,0l-.3,1.3c0,.1,0,.2-.2.2s-.2,0-.2-.1,0,0,0,0l.2-.8Z"/>
        <path class="st4" d="M47.9,20.4c0,.3-.3.4-.8.4h-.8v.4c-.1.1-.2.2-.3.2s-.2,0-.2-.1,0,0,0,0l.3-1.3c0,0,0-.1.2-.1h1.1c.4,0,.7.1.7.4s0,0,0,0v.2ZM46.3,20.5h.9c.2,0,.3,0,.4-.2v-.2s0,0,0,0c0,0-.1-.1-.3-.1h-.8s0,0,0,0v.5Z"/>
        <path class="st4" d="M49.4,21h-1.1l-.2.3c0,0-.1.1-.2.1-.1,0-.2,0-.2-.1s0,0,0-.2l1.1-1.2c0,0,.1-.1.2-.1s.1,0,.2.1l.6,1.2s0,0,0,.1c0,.1-.1.2-.2.2s-.1,0-.2-.1v-.3ZM48.6,20.7h.7l-.2-.5-.5.5Z"/>
        <path class="st4" d="M50.8,21.4c-.4,0-.6-.1-.6-.3s0,0,0-.1l.2-.7c0-.3.3-.4.8-.4h.9c0,0,.1,0,.1.1,0,.1,0,.2-.2.2h-.9c-.2,0-.3,0-.3.1v.7c-.1,0-.1,0-.1,0,0,0,.1.1.3.1h.8c0,0,.1,0,.1.1,0,.1,0,.2-.2.2h-.9Z"/>
        <path class="st4" d="M53,20.1h-.5c0,0-.1,0-.1-.1,0-.1,0-.2.2-.2h1.5c0,0,.1,0,.1.1,0,.1,0,.2-.2.2h-.5l-.2,1.1c0,.1,0,.2-.2.2s-.2,0-.2-.1,0,0,0,0l.2-1.1Z"/>
        <path class="st4" d="M54.3,20.2c0-.3.3-.4.8-.4h.9c0,0,.1,0,.1.1,0,.1,0,.2-.2.2h-.9c-.2,0-.3,0-.3.1v.2s1.2,0,1.2,0c0,0,.1,0,.1.1,0,.1,0,.2-.2.2h-1.2v.5c-.1.1-.2.2-.3.2s-.2,0-.2-.1,0,0,0,0l.2-1Z"/>
        <path class="st4" d="M56.8,21.4c-.4,0-.6-.1-.6-.3s0,0,0-.1l.2-1c0-.1,0-.2.2-.2s.2,0,.2.1,0,0,0,0l-.2,1s0,0,0,0c0,0,.1.1.3.1h.5c.2,0,.3,0,.4-.2l.2-1c0-.1.1-.2.2-.2s.2,0,.2.1,0,0,0,0l-.2,1c0,.3-.3.5-.8.5h-.5Z"/>
        <path class="st4" d="M59.2,21.4c-.4,0-.6-.1-.6-.3s0,0,0-.1l.2-1c0-.1,0-.2.2-.2s.2,0,.2.1,0,0,0,0l-.2,1s0,0,0,0c0,0,.1.1.3.1h.9c0,0,.1,0,.1.1,0,.1,0,.2-.2.2h-1Z"/>
        <path class="st4" d="M62.3,20.1h-.5c0,0-.1,0-.1-.1,0-.1,0-.2.2-.2h1.5c0,0,.1,0,.1.1,0,.1,0,.2-.2.2h-.5l-.2,1.1c0,.1,0,.2-.2.2s-.2,0-.2-.1,0,0,0,0l.2-1.1Z"/>
        <path class="st4" d="M63.9,20.8v.4c-.1.1-.2.2-.3.2s-.2,0-.2-.1,0,0,0,0l.3-1.3c0,0,0-.1.2-.1h1.1c.4,0,.7.1.7.3s0,0,0,0h0c0,.4-.3.6-.8.6h-.2l.7.3c0,0,0,0,0,.1,0,.1-.1.2-.2.2s0,0-.1,0l-1-.6ZM64,20.5h.9c.2,0,.3,0,.4-.1h0c0-.1,0-.1,0-.2,0,0-.1-.1-.3-.1h-.8s0,0,0,0v.4Z"/>
        <path class="st4" d="M67.2,21h-1.1l-.2.3c0,0-.1.1-.2.1-.1,0-.2,0-.2-.1s0,0,0-.2l1.1-1.2c0,0,.1-.1.2-.1s.1,0,.2.1l.6,1.2s0,0,0,.1c0,.1-.1.2-.2.2s-.1,0-.2-.1v-.3ZM66.4,20.7h.7l-.2-.5-.5.5Z"/>
        <path class="st4" d="M68.3,19.9c0-.1.1-.2.2-.2s.2,0,.2.1,0,0,0,0l-.3,1.3c0,.1,0,.2-.2.2s-.2,0-.2-.1,0,0,0,0l.3-1.3Z"/>
        <path class="st4" d="M69.5,19.8l1,1,.2-.9c0-.1.1-.2.2-.2s.2,0,.2.1,0,0,0,0l-.3,1.3c0,.1-.1.2-.2.2s-.1,0-.2,0l-1-1-.2.9c0,.1,0,.2-.2.2s-.2,0-.2-.1,0,0,0,0l.3-1.3c0-.1.1-.2.2-.2s.1,0,.2,0Z"/>
        <path class="st4" d="M71.4,19.9c0-.1.1-.2.2-.2s.2,0,.2.1,0,0,0,0l-.3,1.3c0,.1,0,.2-.2.2s-.2,0-.2-.1,0,0,0,0l.3-1.3Z"/>
        <path class="st4" d="M72.6,19.8l1,1,.2-.9c0-.1.1-.2.2-.2s.2,0,.2.1,0,0,0,0l-.3,1.3c0,.1-.1.2-.2.2s-.1,0-.2,0l-1-1-.2.9c0,.1,0,.2-.2.2s-.2,0-.2-.1,0,0,0,0l.3-1.3c0-.1.1-.2.2-.2s.1,0,.2,0Z"/>
      </g>
    </g>
    <path class="st5" d="M95.4,13.6c.4-2.2-1.1-4.3-3.3-5.2-.9-.3-2.7-.7-3.1.3s1.1,1.7,2.6,2.5,1.9,2.5.5,3.4c0,.7-.2,1.3-.5,2,1.8-.2,3.5-1.2,3.8-3.1Z"/>
    <path class="st4" d="M75.9,20.7v.2c0,.1-.2.2-.4.2h-.5c-.2,0-.3,0-.3-.1s0,0,0,0v-.7c.2,0,.3-.1.5-.1h.3c.1,0,.2,0,.2-.2s0-.1-.1-.1h-.3c-.5,0-.7.1-.8.4l-.2.7s0,0,0,.1c0,.2.2.3.6.3h.5c.5,0,.7-.1.8-.5v-.3c0,0,0,0,0,0,0,0,0-.1-.2-.1h-.7c0,0-.1,0-.1.1,0,.1,0,.2.2.2h.3Z"/>
  </g>
  <path class="st2" d="M87.5,20.1c2.2-.3,3.8-2.4,3.9-4.7,0-1-.2-2.8-1.2-2.9s-1.2,1.6-1.6,3.2-1.8,2.5-3.1,1.5c-.7.2-1.3.2-2.1.1.7,1.7,2.3,2.9,4.1,2.7Z"/>
  <path class="st0" d="M78.9,14.5c.9,2,3.4,2.9,5.7,2.3.9-.3,2.6-1,2.4-2s-1.9-.7-3.6-.6-3-.9-2.3-2.5c-.3-.6-.6-1.2-.8-1.9-1.3,1.2-2.1,3-1.3,4.7Z"/>
  <path class="st3" d="M91.7,4.1c-1.9-1.1-4.5-.3-5.9,1.5-.6.8-1.5,2.4-.7,3s1.9-.6,3.2-1.6,3-1,3.3.6c.6.3,1.2.6,1.8,1.1.4-1.8,0-3.7-1.7-4.6Z"/>
  <path class="st6" d="M81.5,4.7c-1.6,1.5-1.7,4.2-.4,6.1.5.8,1.8,2.2,2.7,1.6s0-2-.6-3.6,0-3.1,1.6-3c.4-.5.9-.9,1.6-1.3-1.6-.9-3.6-1.1-4.9.2Z"/>
</svg>