<?xml version="1.0" encoding="UTF-8" standalone="no"?>
<!-- Generator: Adobe Illustrator 25.2.0, SVG Export Plug-In . SVG Version: 6.00 Build 0)  -->

<svg
   version="1.1"
   id="LOGOS"
   x="0px"
   y="0px"
   viewBox="0 0 2144.6284 572.22009"
   xml:space="preserve"
   sodipodi:docname="ELIXIR_logo_footer_wtext.svg"
   inkscape:version="1.3.2 (091e20e, 2023-11-25)"
   width="2144.6284"
   height="572.22009"
   xmlns:inkscape="http://www.inkscape.org/namespaces/inkscape"
   xmlns:sodipodi="http://sodipodi.sourceforge.net/DTD/sodipodi-0.dtd"
   xmlns="http://www.w3.org/2000/svg"
   xmlns:svg="http://www.w3.org/2000/svg"><defs
   id="defs7"><rect
     x="1393.3369"
     y="541.10168"
     width="89.281776"
     height="45.993645"
     id="rect8" /><rect
     x="773.77539"
     y="311.13348"
     width="1423.0975"
     height="392.29874"
     id="rect7" /></defs><sodipodi:namedview
   id="namedview7"
   pagecolor="#ffffff"
   bordercolor="#666666"
   borderopacity="1.0"
   inkscape:showpageshadow="2"
   inkscape:pageopacity="0.0"
   inkscape:pagecheckerboard="0"
   inkscape:deskcolor="#d1d1d1"
   inkscape:zoom="0.36961629"
   inkscape:cx="354.42161"
   inkscape:cy="285.43114"
   inkscape:window-width="1560"
   inkscape:window-height="768"
   inkscape:window-x="0"
   inkscape:window-y="25"
   inkscape:window-maximized="0"
   inkscape:current-layer="LOGOS" />
<style
   type="text/css"
   id="style1">
	.st0{fill:#F47D20;}
	.st1{fill:#4D4848;}
</style>
<path
   class="st0"
   d="m 716.9,0 c -23.7,0 -43,19.2 -43,43 0,7.2 1.8,14.3 5.2,20.6 -4.3,2.1 -14.2,7.1 -28.2,14.4 -7.6,-16 -26.6,-22.8 -42.6,-15.3 -16,7.5 -22.8,26.6 -15.3,42.6 0.5,1 1,1.9 1.5,2.8 -7.2,4 -14.6,8.1 -22.3,12.4 -7.6,-11.6 -23.2,-14.9 -34.8,-7.3 -10.8,7 -14.5,21.1 -8.6,32.5 -7.9,4.7 -15.9,9.6 -23.9,14.5 -7.7,-6.6 -19.3,-5.6 -25.9,2.1 -3.9,4.6 -5.3,10.8 -3.7,16.7 -32.2,20.9 -62.9,42.8 -87.8,64.1 -29.1,-65 -71.9,-136.3 -131.6,-194.4 l -0.2,-0.2 c -7,-6.9 -12.8,-3.8 -4.7,4.7 l 0.3,0.3 C 301.9,108 341.7,186.8 368.8,258.7 266,346.5 152.7,516.6 276.9,570 c 18.1,7.8 26.3,-7.1 18.5,-11.7 -1.4,-0.8 -56.7,-30.7 -21.5,-122.6 h 88.5 c 4.7,0.2 8.7,-3.6 8.9,-8.3 0.2,-4.7 -3.6,-8.7 -8.3,-8.9 -0.2,0 -0.4,0 -0.6,0 h -81.2 c 5.3,-11.1 11.1,-22 17.5,-32.5 h 63.7 c 4.7,-0.2 8.5,-4.1 8.3,-8.9 -0.2,-4.5 -3.8,-8.1 -8.3,-8.3 h -52.7 c 6.6,-9.8 13.9,-20.1 22.2,-30.9 h 30.5 c 4.7,-0.2 8.5,-4.1 8.3,-8.9 -0.2,-4.5 -3.8,-8.1 -8.3,-8.3 h -16.9 c 9.6,-11.7 20.3,-24 32,-36.9 l 0.3,-0.3 c 23.3,67.6 34.6,125.2 32.1,144.5 -1.4,10.5 -8.1,14.8 -10.8,16.1 -4.3,2.1 -6.1,8.1 0.7,10.1 21.7,6.4 35.1,-15.2 37.5,-32.5 2.4,-17.5 -9.5,-81.5 -40.9,-157.7 26.2,-26.1 56.5,-51 87.4,-73.9 8.8,5.1 20,2.1 25.1,-6.7 1.6,-2.8 2.5,-6 2.5,-9.2 0,-1.2 -0.1,-2.4 -0.4,-3.6 8.2,-5.7 16.3,-11.3 24.4,-16.6 10.9,8.6 26.6,6.8 35.3,-4 4.9,-6.1 6.6,-14.1 4.7,-21.7 8.1,-5 15.9,-9.8 23.4,-14.3 12.2,12.8 32.5,13.2 45.2,1 8.6,-8.3 12,-20.6 8.6,-32.1 13.7,-7.6 23.6,-13 28.5,-15.8 13.4,19.6 40.1,24.7 59.7,11.3 C 760.4,65 765.5,38.3 752.1,18.7 744.3,7.1 731.1,0.1 716.9,0 Z"
   id="path1" />
<path
   class="st1"
   d="m 227.5,344.3 c 1.6,-3.5 2.9,-7.2 4.5,-11.8 1.9,-5.2 3.4,-10.4 4.5,-15.8 L 252.8,246 c 1.3,-7.2 2.4,-12.6 2.7,-15.8 0.5,-2.8 0.7,-5.7 0.5,-8.6 v -3.2 h 37 l -22.2,98.3 c -1.6,7 -2.7,12.3 -3.2,16.1 -0.7,3.8 -0.9,7.7 -0.8,11.5 z"
   id="path2" />
<path
   class="st1"
   d="M 135.3,344.3 H 25.7 c -11,0 -18.5,-2.4 -22.5,-7.5 -2.1,-2.9 -3.2,-6.9 -3.2,-12 0.1,-4.6 0.7,-9.2 1.9,-13.7 l 13.6,-59.5 c 2.9,-12 7.2,-20.6 13.1,-25.7 6.2,-5.1 14.5,-7.5 25.7,-7.5 h 80.9 c 11.5,0 19,2.4 22.8,7.5 2.4,3 3.5,7 3.5,12.3 0,4.5 -0.7,9 -1.9,13.4 L 150.8,291 H 40.7 l -5.9,25.7 c -0.4,2 -0.7,4.1 -0.8,6.2 0,1.3 0,2.4 0.5,2.9 0.8,1.6 3.2,2.4 7,2.4 h 80.3 c 7,0 14,-0.7 20.9,-2.1 z M 126.7,246 c 0.7,-2.1 1.1,-4.2 1.1,-6.4 0,-0.9 -0.2,-1.8 -0.5,-2.7 -1.1,-1.6 -3.7,-2.4 -7.5,-2.4 H 63 c -3.7,0 -6.4,0.8 -8,2.4 -1.9,1.6 -3.2,4.6 -3.7,9.1 l -6.9,28.9 h 75.5 z"
   id="path3" />
<path
   class="st1"
   d="m 162.6,344.3 c 1.7,-3.9 3.1,-8.1 4.8,-13.2 2,-5.8 3.6,-11.7 4.8,-17.7 l 28.1,-130.3 c 1.7,-8.1 2.8,-14.1 3.4,-17.7 0.3,-3.3 0.6,-7.8 0.6,-13.2 h 39.2 l -35,161.3 c -1.7,7.8 -2.8,13.8 -3.4,18 -0.7,4.3 -1,8.6 -0.8,12.9 z"
   id="path4" />
<path
   class="st1"
   d="m 441.2,344.3 c 1.6,-3.5 2.9,-7.2 4.5,-11.8 1.9,-5.1 3.4,-10.4 4.6,-15.8 L 466.6,246 c 1.3,-7.2 2.4,-12.6 2.7,-15.8 0.5,-2.8 0.7,-5.7 0.5,-8.6 v -3.2 h 37 l -22.3,98.3 c -1.6,7 -2.7,12.3 -3.2,16.1 -0.7,3.8 -0.9,7.7 -0.8,11.5 z"
   id="path5" />
<path
   class="st1"
   d="m 614.6,239.6 c -4,-0.3 -8,-0.5 -12.6,-0.5 h -18 c -3.5,0 -6.4,0.8 -8,2.1 -2.1,1.6 -3.5,4.3 -4.6,8.3 l -15,67.2 c -2.7,10.4 -3.8,18.5 -3.8,24.6 v 2.9 h -39.1 c 1.6,-4 3.2,-7.8 4.3,-11.5 1.1,-3.5 2.4,-8.8 4.3,-16.1 l 16.1,-70.7 c 1.9,-7 2.7,-12.3 3.5,-16.3 0.4,-3.7 0.6,-7.5 0.5,-11.2 h 32.9 l -1.3,12.8 c 1.8,-3.9 4.7,-7.3 8.3,-9.6 3.5,-2.1 8,-3.2 14.2,-3.2 h 32.2 l 7.8,13.9 c -1.7,1.5 -3.2,3.2 -4.5,5.1 -1.9,2.4 -3.2,3.5 -4,3.5 -4.9,-0.5 -9.2,-1 -13.2,-1.3 z"
   id="path6" />
<path
   class="st1"
   d="m 299.3,174.4 c 0,10 -8.1,18.1 -18.1,18.1 -10,0 -18.1,-8.1 -18.1,-18.1 0,-10 8.1,-18.1 18.1,-18.1 0,0 0,0 0,0 10,-0.1 18.1,8.1 18.1,18.1 z"
   id="path7" />
<text
   xml:space="preserve"
   id="text7"
   style="font-style:normal;font-weight:normal;font-size:69.3333px;line-height:1.25;font-family:sans-serif;white-space:pre;shape-inside:url(#rect7);fill:#000000;fill-opacity:1;stroke:none"
   transform="translate(-23.266949,-149.43686)"><tspan
     x="773.77539"
     y="375.61278"
     id="tspan3"><tspan
       dx="0 0 0 0 0 0 0 0 0 0 0 0 0 0 0 0 0 0 0 0 0 0 0 0 0 0 0 0 0 0 0 0 0 0.00010490417"
       style="font-weight:bold;font-family:Lato;-inkscape-font-specification:'Lato Bold'"
       id="tspan2">Training SPLASH was developed with funding </tspan></tspan><tspan
     x="773.77539"
     y="463.5045"
     id="tspan5"><tspan
       style="font-weight:bold;font-family:Lato;-inkscape-font-specification:'Lato Bold'"
       id="tspan4">from the BioHackathon Europe 2023 and the </tspan></tspan><tspan
     x="773.77539"
     y="551.39623"
     id="tspan7"><tspan
       style="font-weight:bold;font-family:Lato;-inkscape-font-specification:'Lato Bold'"
       id="tspan6">ELIXIR Scientific Programme 2024-28</tspan></tspan></text><text
   xml:space="preserve"
   id="text8"
   style="font-style:normal;font-weight:normal;font-size:40px;line-height:1.25;font-family:sans-serif;white-space:pre;shape-inside:url(#rect8);fill:#000000;fill-opacity:1;stroke:none"
   transform="translate(-39.5,-33.1)" /></svg>
