<?xml version="1.0" encoding="UTF-8" standalone="no"?>
<!-- Created with Inkscape (http://www.inkscape.org/) -->

<svg
   width="580.40027"
   height="390.80682"
   viewBox="0 0 153.56423 103.40097"
   version="1.1"
   id="svg1"
   xml:space="preserve"
   inkscape:version="1.3.2 (091e20e, 2023-11-25)"
   sodipodi:docname="FAIRtraining_handbook_logo.svg"
   xmlns:inkscape="http://www.inkscape.org/namespaces/inkscape"
   xmlns:sodipodi="http://sodipodi.sourceforge.net/DTD/sodipodi-0.dtd"
   xmlns="http://www.w3.org/2000/svg"
   xmlns:svg="http://www.w3.org/2000/svg"
   xmlns:rdf="http://www.w3.org/1999/02/22-rdf-syntax-ns#"
   xmlns:cc="http://creativecommons.org/ns#"><sodipodi:namedview
     id="namedview1"
     pagecolor="#ffffff"
     bordercolor="#000000"
     borderopacity="0.25"
     inkscape:showpageshadow="2"
     inkscape:pageopacity="0.0"
     inkscape:pagecheckerboard="0"
     inkscape:deskcolor="#d1d1d1"
     inkscape:document-units="mm"
     inkscape:zoom="1"
     inkscape:cx="353"
     inkscape:cy="172"
     inkscape:window-width="1656"
     inkscape:window-height="997"
     inkscape:window-x="225"
     inkscape:window-y="25"
     inkscape:window-maximized="0"
     inkscape:current-layer="layer1"
     showguides="false" /><defs
     id="defs1" /><g
     inkscape:label="Layer 1"
     inkscape:groupmode="layer"
     id="layer1"
     transform="translate(-187.99347,497.96164)"><path
       fill="#c9e891"
       d="m 189.08477,-496.87033 49.11516,49.1153 49.11531,-49.1153 z"
       id="path757"
       style="fill:#005472;fill-opacity:1;stroke:#f7f6f6;stroke-width:0.904067;stroke-dasharray:none;stroke-opacity:1"
       inkscape:export-filename="FAIRtraining_handbook_sticker.svg"
       inkscape:export-xdpi="96"
       inkscape:export-ydpi="96" /><path
       fill="#68c0d2"
       d="m 189.08477,-496.87033 49.11516,49.1153 -49.11516,49.11532 z"
       id="path758"
       style="fill:#005472;fill-opacity:1;stroke:#f7f6f6;stroke-width:0.904067;stroke-dasharray:none;stroke-opacity:1" /><path
       fill="#a796c2"
       d="m 291.80361,-444.31525 24.55766,24.55767 -24.55766,24.55764 -24.55766,-24.55764 z"
       id="path759"
       style="fill:#f47d20;fill-opacity:1;stroke:#4d4848;stroke-width:0.904067;stroke-dasharray:none;stroke-opacity:1" /><path
       fill="#f195c8"
       d="m 242.68828,-395.19994 h 49.11533 l -24.55766,-24.55764 z"
       id="path760"
       style="fill:#f47d20;fill-opacity:1;stroke:#4d4848;stroke-width:0.904067;stroke-dasharray:none;stroke-opacity:1" /><g
       id="g763"
       transform="matrix(1.5612286,0,0,1.5612286,-425.79956,-62.849142)"><path
         fill="#ef3d61"
         d="m 475.48935,-260.1504 v 31.45941 l 15.7297,-15.72971 v -31.45939 z"
         id="path761"
         style="fill:#f47d20;fill-opacity:1;stroke:#4d4848;stroke-width:0.579074;stroke-dasharray:none;stroke-opacity:1" /><path
         fill="#f0f223"
         d="m 459.75965,-244.4207 15.7297,15.72971 v -31.45941 z"
         id="path762"
         style="fill:#f47d20;fill-opacity:1;stroke:#4d4848;stroke-width:0.579074;stroke-dasharray:none;stroke-opacity:1" /><path
         fill="#f8c82c"
         d="m 459.75965,-212.96129 31.4594,-31.45941 v 31.45941 z"
         id="path763"
         style="fill:#bebf32;fill-opacity:1;stroke:#4d4848;stroke-width:0.579074;stroke-dasharray:none;stroke-opacity:1" /></g><path
       d="m 235.30271,-417.88049 -1.03279,1.03279 -8.4777,-8.47771 5.05621,-5.05621 0.93141,0.93141 -4.02343,4.02343 2.7372,2.73719 3.56722,-3.56722 0.93141,0.93141 -3.56722,3.56722 z m 4.02342,-4.02342 -5.02453,-11.93088 0.89339,-0.89339 11.93087,5.02453 -1.12149,1.12149 -3.56722,-1.53967 -3.54187,3.54188 1.53966,3.56722 z m -3.26943,-11.05015 q 1.02012,2.14793 1.79312,3.96006 l 0.48154,1.11515 2.80689,-2.8069 -1.11515,-0.48154 q -1.83746,-0.79834 -3.94105,-1.81212 z m 12.36806,1.95151 -8.4777,-8.4777 1.03279,-1.03278 8.4777,8.4777 z m 0.70965,-7.73004 3.5102,3.5102 -1.03279,1.03279 -8.4777,-8.47771 2.19863,-2.19862 q 0.55757,-0.55758 0.98841,-0.89975 0.43088,-0.3548 0.8427,-0.58926 1.12782,-0.64628 2.17962,-0.53222 1.04546,0.1077 1.9135,0.97575 0.51322,0.51322 0.75399,1.08348 0.24078,0.57024 0.24078,1.16584 -10e-6,0.59559 -0.2281,1.20385 -0.22177,0.60194 -0.63995,1.19753 l 0.0253,0.0253 6.39313,0.85537 -1.2989,1.2989 -6.12067,-0.89973 z m -4.0361,-4.03609 3.10469,3.10468 1.02011,-1.02011 q 0.47521,-0.47521 0.77934,-0.8427 0.30414,-0.36749 0.48788,-0.71598 0.37383,-0.70331 0.30414,-1.35592 -0.0697,-0.65261 -0.65263,-1.23554 -0.55126,-0.53854 -1.15316,-0.59559 -0.60827,-0.0634 -1.23554,0.27244 -0.29782,0.15838 -0.64628,0.44354 -0.34848,0.28512 -0.83636,0.77301 z m 19.85099,-4.73307 q -0.076,0.17742 -0.29145,0.48154 -0.21545,0.30412 -0.57024,0.67164 -0.47521,0.47521 -0.94408,0.70331 -0.46254,0.23443 -0.9124,0.25344 -0.44986,0.006 -0.87439,-0.19008 -0.42452,-0.19642 -0.80468,-0.57658 l -3.66226,-3.66226 -1.15951,1.1595 -0.8427,-0.8427 1.15951,-1.15951 -1.64739,-1.64739 0.9821,-0.9821 1.64739,1.64739 1.79945,-1.79945 0.8427,0.8427 -1.79945,1.79946 3.51019,3.51019 q 0.20909,0.20909 0.4435,0.32951 0.24077,0.11405 0.50055,0.12038 0.25978,-0.006 0.53857,-0.13305 0.27248,-0.13304 0.5576,-0.41817 0.19642,-0.19642 0.38017,-0.44352 0.19009,-0.25344 0.32314,-0.48787 z m -0.60192,-9.8653 -0.076,0.076 q -0.34848,0.34849 -0.62094,0.74766 -0.27245,0.39916 -0.43719,0.83003 -0.16474,0.41818 -0.21542,0.84903 -0.0444,0.42451 0.057,0.8427 l 4.19449,4.1945 -0.98209,0.98209 -6.01929,-6.01929 0.76033,-0.76033 1.14684,0.76667 0.019,-0.019 q -0.0887,-0.38017 -0.0824,-0.79202 0.0127,-0.41817 0.12673,-0.83636 0.11405,-0.41818 0.34848,-0.81736 0.2281,-0.40551 0.57659,-0.754 0.0634,-0.0633 0.13308,-0.12035 0.0697,-0.0697 0.12675,-0.11403 z m 9.12398,-0.0127 -0.0253,0.0253 q 0.0317,0.27246 0,0.60827 -0.038,0.32948 -0.15841,0.69063 -0.12673,0.35483 -0.34215,0.70965 -0.2154,0.35484 -0.53854,0.67798 -0.43719,0.43719 -0.93775,0.67162 -0.48788,0.23444 -1.0011,0.25345 -0.51323,0.006 -1.02011,-0.20909 -0.50689,-0.21542 -0.9631,-0.67163 -0.44986,-0.44986 -0.64627,-0.96308 -0.19008,-0.51956 -0.14574,-1.05813 0.0444,-0.53857 0.31682,-1.07714 0.27878,-0.54491 0.77299,-1.03912 0.47524,-0.46251 0.95042,-0.78567 0.47521,-0.32314 0.89973,-0.51956 l 0.0253,-0.0253 -0.41818,-0.41818 q -0.24711,-0.24711 -0.46887,-0.40551 -0.22176,-0.15841 -0.44353,-0.2281 -0.46887,-0.13939 -1.02645,0.0253 -0.56391,0.1584 -1.17851,0.773 -0.4562,0.4562 -0.773,0.95042 -0.31681,0.48155 -0.56392,1.03278 l -0.82369,-0.82369 q 0.076,-0.2281 0.21543,-0.49422 0.13937,-0.27881 0.32314,-0.55124 0.1774,-0.2788 0.40551,-0.55757 0.22813,-0.27876 0.48157,-0.53221 0.9124,-0.9124 1.81212,-1.16584 0.90607,-0.25978 1.69174,0.019 0.2978,0.10771 0.58292,0.3168 0.28511,0.19645 0.57657,0.4879 l 4.01709,4.01709 -0.8237,0.82369 z m -2.02756,-1.92617 q -0.34848,0.19642 -0.79201,0.50055 -0.44355,0.30411 -0.89973,0.74766 -0.62727,0.62727 -0.71598,1.24822 -0.0887,0.62093 0.46254,1.17217 0.27879,0.27879 0.57659,0.39917 0.29779,0.12039 0.58925,0.10772 0.29147,-0.0253 0.57025,-0.16474 0.27879,-0.15207 0.51956,-0.39284 0.3168,-0.31681 0.50054,-0.67796 0.17742,-0.3675 0.25979,-0.70331 0.0887,-0.34215 0.1077,-0.61461 0.0254,-0.27879 0.0254,-0.41817 z m 5.58844,-0.30413 -6.01929,-6.01929 0.98209,-0.9821 6.01929,6.01929 z m -7.44489,-7.39426 -1.09614,-1.09614 1.03278,-1.03278 1.09614,1.09614 z m 6.15869,-1.6854 0.019,-0.019 q -0.0444,-0.37383 -0.0253,-0.74766 0.019,-0.3865 0.13305,-0.76666 0.10772,-0.38651 0.32314,-0.754 0.22177,-0.37383 0.57025,-0.72232 0.41185,-0.41184 0.88706,-0.65896 0.4752,-0.2471 0.99477,-0.25977 0.51956,-0.0127 1.08347,0.24711 0.56391,0.24711 1.1595,0.84269 l 4.02976,4.02976 -0.98209,0.9821 -3.87136,-3.87136 q -0.77934,-0.77934 -1.42562,-0.81735 -0.63995,-0.0443 -1.21653,0.53223 -0.50689,0.50689 -0.69697,1.26722 -0.19642,0.75399 -0.0444,1.59036 l 4.27686,4.27686 -0.98209,0.9821 -6.01929,-6.01929 0.76033,-0.76033 z m 11.13886,-0.773 -6.01929,-6.01929 0.9821,-0.9821 6.01928,6.01929 z m -7.44492,-7.39423 -1.09614,-1.09615 1.03279,-1.03278 1.09614,1.09614 z m 6.15869,-1.6854 0.019,-0.019 q -0.0444,-0.37383 -0.0253,-0.74766 0.019,-0.3865 0.13305,-0.76666 0.10772,-0.3865 0.32314,-0.754 0.22177,-0.37383 0.57025,-0.72232 0.41185,-0.41184 0.88705,-0.65895 0.47521,-0.24711 0.99478,-0.25978 0.51955,-0.0127 1.08347,0.24711 0.56391,0.24711 1.1595,0.8427 l 4.02976,4.02976 -0.9821,0.98209 -3.87135,-3.87135 q -0.77934,-0.77935 -1.42563,-0.81736 -0.63994,-0.0443 -1.21652,0.53223 -0.50689,0.50689 -0.69697,1.26722 -0.19643,0.754 -0.0444,1.59036 l 4.27687,4.27687 -0.9821,0.98209 -6.01929,-6.01929 0.76034,-0.76033 z m 8.78183,-4.35924 q 0.70965,0.70965 1.33058,0.98843 0.62094,0.27879 1.13417,0.27246 0.51322,-0.019 0.91873,-0.23444 0.39918,-0.22176 0.67796,-0.50055 0.4562,-0.4562 0.67163,-1.03912 0.21542,-0.58292 0.20275,-1.20386 l -3.14903,-3.14904 q -0.19642,-0.0317 -0.48789,-0.0317 -0.29146,0 -0.60826,0.076 -0.3168,0.0634 -0.64628,0.2281 -0.33582,0.1584 -0.62728,0.44987 -0.43719,0.43719 -0.59559,0.95041 -0.1584,0.50055 -0.076,1.03912 0.0887,0.53223 0.41184,1.08347 0.31681,0.54491 0.8427,1.0708 z m -1.55234,-4.85978 q 0.3992,-0.38648 0.78568,-0.58292 0.3865,-0.19642 0.74132,-0.25979 0.34849,-0.0697 0.60827,-0.0507 0.26611,0.0127 0.39283,0.0507 l 0.0254,-0.0254 -0.48154,-0.88705 0.74132,-0.74132 6.37411,6.37411 q 0.69697,0.69697 0.9821,1.4383 0.29146,0.74766 0.22176,1.50165 -0.0697,0.75399 -0.48788,1.50166 -0.40551,0.74765 -1.10882,1.45096 -0.59559,0.59559 -1.17218,0.95675 -0.57025,0.36749 -0.98209,0.48788 l -0.83003,-0.83003 q 0.30413,-0.12672 0.56392,-0.27245 0.26611,-0.1394 0.51956,-0.3168 0.25976,-0.17109 0.50054,-0.37384 0.24713,-0.20907 0.51958,-0.48153 1.05813,-1.05812 1.12783,-2.11625 0.0697,-1.05813 -0.94409,-2.07191 l -0.80468,-0.80468 -0.019,0.019 q 0.0317,0.67796 -0.21542,1.29256 -0.24711,0.60193 -0.79835,1.15318 -0.25344,0.25344 -0.60197,0.48784 -0.34845,0.23446 -0.773,0.39283 -0.43085,0.15207 -0.91873,0.19642 -0.49422,0.038 -1.03279,-0.095 -0.54491,-0.13939 -1.13416,-0.47521 -0.58292,-0.34214 -1.19119,-0.95041 -0.8427,-0.8427 -1.2292,-1.6854 -0.39284,-0.84904 -0.42452,-1.62838 -0.0317,-0.77934 0.25345,-1.4573 0.27878,-0.6843 0.79201,-1.19752 z"
       id="text764"
       style="font-size:18.3513px;font-family:Corbel;-inkscape-font-specification:Corbel;text-align:center;text-anchor:middle;white-space:pre;fill:#4d4848;stroke-width:7.93488"
       aria-label="FAIR training" /><path
       d="m 241.39878,-412.05173 0.0156,-0.0156 q -0.0364,-0.3067 -0.0156,-0.6186 0.0156,-0.31709 0.11436,-0.62379 0.0936,-0.31189 0.26511,-0.6082 0.17155,-0.29628 0.44186,-0.5666 0.28071,-0.2807 0.63939,-0.48344 0.35348,-0.20793 0.78494,-0.25471 0.43146,-0.0468 0.92529,0.14556 0.49384,0.19232 1.03446,0.73295 l 3.3061,3.3061 -0.80573,0.80573 -3.17615,-3.17615 q -0.59779,-0.59779 -1.12802,-0.67057 -0.52502,-0.078 -1.03965,0.43666 -0.42626,0.42625 -0.57701,1.04484 -0.15595,0.61341 -0.0312,1.29957 l 3.50883,3.50884 -0.80573,0.80573 -7.5271,-7.52709 0.80574,-0.80574 z m 11.4154,-3.98188 -0.0208,0.0208 q 0.026,0.22352 10e-6,0.49904 -0.0312,0.2703 -0.12996,0.5666 -0.10397,0.2911 -0.28071,0.58221 -0.17671,0.29113 -0.44183,0.55624 -0.35868,0.35868 -0.76935,0.55101 -0.40026,0.19234 -0.82132,0.20794 -0.42106,0.005 -0.83692,-0.17155 -0.41587,-0.17674 -0.79014,-0.55101 -0.36908,-0.36908 -0.53023,-0.79014 -0.15594,-0.42626 -0.11955,-0.86812 0.0364,-0.44185 0.25991,-0.88371 0.22872,-0.44704 0.63419,-0.85251 0.38962,-0.37973 0.77976,-0.64457 0.38986,-0.26512 0.73816,-0.42625 l 0.0208,-0.0208 -0.34308,-0.34308 q -0.20274,-0.20274 -0.3847,-0.33266 -0.18198,-0.12993 -0.36388,-0.18714 -0.38468,-0.11436 -0.84213,0.0208 -0.46264,0.12996 -0.96687,0.63419 -0.37428,0.37428 -0.63419,0.77974 -0.25989,0.39509 -0.46265,0.84732 l -0.67578,-0.67577 q 0.0624,-0.18713 0.17675,-0.40547 0.11434,-0.22875 0.26511,-0.45225 0.14556,-0.22872 0.3327,-0.45744 0.18714,-0.22872 0.39507,-0.43665 0.74855,-0.74855 1.4867,-0.95648 0.74336,-0.21313 1.38794,0.0156 0.24433,0.0884 0.47825,0.25991 0.23395,0.16111 0.47307,0.40023 l 3.29571,3.29571 -0.67579,0.67578 z m -1.66344,-1.58028 q -0.28589,0.16116 -0.64978,0.41066 -0.36391,0.24949 -0.73815,0.61341 -0.51463,0.51463 -0.5874,1.02406 -0.0728,0.50943 0.37947,0.96168 0.22872,0.22872 0.47304,0.32749 0.24432,0.0988 0.48344,0.0884 0.23912,-0.0208 0.46785,-0.13515 0.22871,-0.12476 0.42625,-0.3223 0.25991,-0.25991 0.41066,-0.55621 0.14556,-0.30151 0.21313,-0.57701 0.0728,-0.28071 0.0884,-0.50424 0.0208,-0.22872 0.0208,-0.34308 z m 1.06044,-5.22946 0.0156,-0.0156 q -0.0364,-0.30671 -0.0208,-0.6134 0.0156,-0.31709 0.10917,-0.62899 0.0884,-0.31709 0.2651,-0.61859 0.18196,-0.30669 0.46786,-0.59259 0.33789,-0.33789 0.72776,-0.54062 0.38987,-0.20274 0.81612,-0.21313 0.42627,-0.0104 0.88892,0.20273 0.46264,0.20273 0.95128,0.69137 l 3.3061,3.3061 -0.80573,0.80573 -3.17615,-3.17614 q -0.63939,-0.63939 -1.16961,-0.67058 -0.52502,-0.0364 -0.99806,0.43666 -0.41587,0.41586 -0.57182,1.03965 -0.16114,0.6186 -0.0364,1.30477 l 3.50884,3.50883 -0.80574,0.80574 -4.93835,-4.93836 0.62379,-0.6238 z m 7.2256,-3.55561 q 0.42626,0.42625 0.86812,0.68097 0.44185,0.24431 0.86811,0.30669 0.42106,0.0572 0.81613,-0.078 0.39506,-0.13516 0.73815,-0.47825 0.25472,-0.25471 0.39505,-0.53024 0.14033,-0.27553 0.19753,-0.54062 0.0624,-0.2703 0.0624,-0.49903 0,-0.23912 -0.0312,-0.40546 l -2.58354,-2.58355 q -0.50423,-0.005 -0.98247,0.17155 -0.48344,0.17154 -0.86291,0.55102 -0.22872,0.22872 -0.39508,0.57181 -0.16634,0.33268 -0.16114,0.77454 0.0104,0.43665 0.24952,0.95648 0.23391,0.51463 0.82132,1.10204 z m -0.83172,0.85251 q -0.51462,-0.51463 -0.81093,-1.00847 -0.2963,-0.50423 -0.42626,-0.96687 -0.12995,-0.46266 -0.10396,-0.88371 0.0208,-0.42626 0.13515,-0.79013 0.11437,-0.36389 0.30671,-0.66019 0.19231,-0.30672 0.41063,-0.52505 0.45225,-0.45225 0.93569,-0.63419 0.48344,-0.18193 1.03966,-0.15594 l 0.0156,-0.0156 -3.05138,-3.05138 0.80573,-0.80574 7.5271,7.5271 -0.6082,0.6082 -0.71736,-0.38468 -0.0208,0.0208 q 0.026,0.21314 0.026,0.46265 -0.005,0.24432 -0.078,0.51463 -0.0676,0.26511 -0.23392,0.54582 -0.15596,0.2807 -0.44706,0.5718 -0.40547,0.40547 -0.9305,0.66018 -0.53022,0.24952 -1.13842,0.25471 -0.60819,-0.005 -1.27357,-0.2963 -0.67057,-0.2963 -1.36195,-0.98767 z m 9.49204,-9.65838 q -0.58741,-0.58741 -1.09164,-0.81093 -0.50423,-0.23394 -0.92528,-0.21834 -0.42107,0.005 -0.74335,0.17155 -0.3223,0.16634 -0.56662,0.41066 -0.37427,0.37428 -0.55102,0.86291 -0.17154,0.48344 -0.17674,0.98767 l 2.58354,2.58354 q 0.17155,0.026 0.40547,0.0312 0.23392,-0.005 0.49903,-0.0624 0.25991,-0.0624 0.53022,-0.18714 0.27034,-0.13513 0.50945,-0.37425 0.35868,-0.35868 0.48864,-0.76934 0.13516,-0.41587 0.0624,-0.85252 -0.0728,-0.44705 -0.33268,-0.8941 -0.26512,-0.45224 -0.69138,-0.8785 z m 0.77976,-0.90449 q 0.69136,0.69136 1.00847,1.38274 0.31709,0.69137 0.34308,1.33075 0.0208,0.63419 -0.21313,1.19041 -0.23392,0.55622 -0.65498,0.97728 -0.3171,0.31709 -0.64459,0.47824 -0.31709,0.16114 -0.5978,0.22352 -0.2807,0.052 -0.49904,0.0416 -0.21313,-0.0156 -0.32229,-0.0416 l -0.0156,0.0156 0.37948,0.72256 -0.6082,0.6082 -7.52709,-7.5271 0.80573,-0.80573 3.05139,3.05138 0.0156,-0.0156 q -0.0156,-0.54582 0.18193,-1.05526 0.19754,-0.50942 0.64979,-0.96167 0.20793,-0.20794 0.49387,-0.40025 0.29113,-0.19751 0.63938,-0.31709 0.35349,-0.12476 0.75895,-0.15595 0.40547,-0.0312 0.85252,0.0832 0.44185,0.10915 0.92529,0.39507 0.47824,0.2807 0.97728,0.77974 z m 4.92276,-4.74603 q -0.45744,-0.45744 -0.92529,-0.69656 -0.46785,-0.24952 -0.91489,-0.29111 -0.44705,-0.052 -0.84733,0.0988 -0.40546,0.14555 -0.73295,0.47304 -0.32749,0.32749 -0.47305,0.73296 -0.15074,0.40027 -0.10395,0.85252 0.0468,0.44185 0.2911,0.91489 0.24432,0.46265 0.70176,0.92009 0.45225,0.45225 0.92009,0.70177 0.46785,0.23912 0.9149,0.28071 0.44705,0.0416 0.85252,-0.10396 0.40026,-0.15076 0.72775,-0.47825 0.3275,-0.32749 0.47305,-0.72255 0.14555,-0.40547 0.0988,-0.84733 -0.0416,-0.44705 -0.28591,-0.90969 -0.24432,-0.47305 -0.69657,-0.9253 z m 0.84212,-0.84212 q 0.58221,0.58221 0.8941,1.22679 0.3119,0.64459 0.34828,1.29437 0.0364,0.63939 -0.20792,1.25798 -0.24431,0.6186 -0.77974,1.15403 -0.55102,0.55101 -1.17481,0.80052 -0.6186,0.24433 -1.26318,0.21313 -0.64459,-0.0416 -1.28398,-0.35868 -0.63938,-0.31709 -1.22159,-0.8993 -0.5874,-0.5874 -0.8993,-1.23199 -0.31189,-0.64458 -0.35348,-1.28917 -0.0364,-0.64978 0.20793,-1.26838 0.24951,-0.62379 0.78494,-1.15921 0.54582,-0.54582 1.16961,-0.79534 0.62379,-0.24951 1.26838,-0.20793 0.64458,0.0416 1.28397,0.35868 0.63939,0.3171 1.22679,0.9045 z m 4.83439,-4.83439 q -0.45745,-0.45744 -0.92529,-0.69656 -0.46785,-0.24952 -0.9149,-0.2911 -0.44704,-0.052 -0.84731,0.0988 -0.40547,0.14555 -0.73296,0.47304 -0.32749,0.32749 -0.47304,0.73296 -0.15075,0.40027 -0.10396,0.85251 0.0468,0.44185 0.2911,0.9149 0.24432,0.46265 0.70176,0.92009 0.45225,0.45225 0.9201,0.70177 0.46784,0.23912 0.91489,0.2807 0.44705,0.0416 0.85252,-0.10395 0.40026,-0.15076 0.72775,-0.47825 0.32749,-0.32749 0.47305,-0.72256 0.14555,-0.40546 0.0988,-0.84731 -0.0416,-0.44706 -0.2859,-0.9097 -0.24432,-0.47305 -0.69657,-0.9253 z m 0.84212,-0.84212 q 0.58221,0.58221 0.8941,1.2268 0.3119,0.64458 0.34828,1.29436 0.0364,0.63939 -0.20792,1.25798 -0.24432,0.61861 -0.77974,1.15403 -0.55101,0.55101 -1.17482,0.80053 -0.61859,0.24432 -1.26317,0.21312 -0.64459,-0.0416 -1.28397,-0.35868 -0.63939,-0.31709 -1.2216,-0.8993 -0.5874,-0.5874 -0.8993,-1.23199 -0.3119,-0.64458 -0.35348,-1.28917 -0.0364,-0.64978 0.20793,-1.26838 0.24952,-0.62379 0.78494,-1.15921 0.54581,-0.54582 1.16961,-0.79534 0.62379,-0.24951 1.26838,-0.20793 0.64458,0.0416 1.28397,0.35868 0.63939,0.3171 1.22679,0.9045 z m 1.99614,-6.94488 1.05005,-1.05006 -0.14035,4.68365 5.0735,0.25991 -1.00326,1.00327 -5.00074,-0.25991 -0.0104,0.0104 2.63032,2.63033 -0.80573,0.80573 -7.5271,-7.5271 0.80574,-0.80573 4.7928,4.79281 0.0104,-0.0104 z"
       id="text766"
       style="font-size:15.0558px;font-family:Corbel;-inkscape-font-specification:Corbel;text-align:center;text-anchor:middle;white-space:pre;fill:#4d4848;stroke-width:6.50991"
       aria-label="handbook" /></g><metadata
     id="metadata2568"><rdf:RDF><cc:Work
         rdf:about=""><cc:license
           rdf:resource="http://creativecommons.org/licenses/by/4.0/" /></cc:Work><cc:License
         rdf:about="http://creativecommons.org/licenses/by/4.0/"><cc:permits
           rdf:resource="http://creativecommons.org/ns#Reproduction" /><cc:permits
           rdf:resource="http://creativecommons.org/ns#Distribution" /><cc:requires
           rdf:resource="http://creativecommons.org/ns#Notice" /><cc:requires
           rdf:resource="http://creativecommons.org/ns#Attribution" /><cc:permits
           rdf:resource="http://creativecommons.org/ns#DerivativeWorks" /></cc:License></rdf:RDF></metadata></svg>
