<?xml version="1.0" encoding="UTF-8" standalone="no"?>
<svg
   id="Layer_1"
   version="1.1"
   viewBox="0 0 30 24.7"
   sodipodi:docname="SPLASH_icon_RGB.svg"
   inkscape:version="1.4.4 (dcaf3e7, 2026-05-05)"
   width="30"
   height="24.700001"
   xmlns:inkscape="http://www.inkscape.org/namespaces/inkscape"
   xmlns:sodipodi="http://sodipodi.sourceforge.net/DTD/sodipodi-0.dtd"
   xmlns="http://www.w3.org/2000/svg"
   xmlns:svg="http://www.w3.org/2000/svg">
  <sodipodi:namedview
     id="namedview53"
     pagecolor="#ffffff"
     bordercolor="#000000"
     borderopacity="0.25"
     inkscape:showpageshadow="2"
     inkscape:pageopacity="0.0"
     inkscape:pagecheckerboard="0"
     inkscape:deskcolor="#d1d1d1"
     inkscape:zoom="16"
     inkscape:cx="26.875"
     inkscape:cy="2.59375"
     inkscape:window-width="1920"
     inkscape:window-height="1111"
     inkscape:window-x="-9"
     inkscape:window-y="-9"
     inkscape:window-maximized="1"
     inkscape:current-layer="Layer_1" />
  <!-- Generator: Adobe Illustrator 30.2.1, SVG Export Plug-In . SVG Version: 2.1.1 Build 1)  -->
  <defs
     id="defs1">
    <style
       id="style1">
      .st0 {
        fill: #1e75bb;
      }

      .st1 {
        fill: #fff;
      }

      .st2 {
        fill: #91298c;
      }

      .st3 {
        fill: #ed2d7b;
      }

      .st4 {
        fill: #4d4848;
      }

      .st5 {
        fill: #d6de27;
      }

      .st6 {
        fill: #f16623;
      }
    </style>
  </defs>
  <path
     class="st5"
     d="m 25.621323,13.6 c 0.4,-2.2 -1.1,-4.3 -3.3,-5.2 -0.9,-0.3 -2.7,-0.7 -3.1,0.3 -0.4,1 1.1,1.7 2.6,2.5 1.5,0.8 1.9,2.5 0.5,3.4 0,0.7 -0.2,1.3 -0.5,2 1.8,-0.2 3.5,-1.2 3.8,-3.1 z"
     id="path48" />
  <path
     class="st2"
     d="m 17.721323,20.1 c 2.2,-0.3 3.8,-2.4 3.9,-4.7 0,-1 -0.2,-2.8 -1.2,-2.9 -1,-0.1 -1.2,1.6 -1.6,3.2 -0.4,1.6 -1.8,2.5 -3.1,1.5 -0.7,0.2 -1.3,0.2 -2.1,0.1 0.7,1.7 2.3,2.9 4.1,2.7 z"
     id="path50" />
  <path
     class="st0"
     d="m 9.121323,14.5 c 0.9,2 3.4,2.9 5.7,2.3 0.9,-0.3 2.6,-1 2.4,-2 -0.2,-1 -1.9,-0.7 -3.6,-0.6 -1.7,0.1 -3,-0.9 -2.3,-2.5 -0.3,-0.6 -0.6,-1.2 -0.8,-1.9 -1.3,1.2 -2.1,3 -1.3,4.7 z"
     id="path51" />
  <path
     class="st3"
     d="m 21.921323,4.1 c -1.9,-1.1 -4.5,-0.3 -5.9,1.5 -0.6,0.8 -1.5,2.4 -0.7,3 0.8,0.6 1.9,-0.6 3.2,-1.6 1.3,-1 3,-1 3.3,0.6 0.6,0.3 1.2,0.6 1.8,1.1 0.4,-1.8 0,-3.7 -1.7,-4.6 z"
     id="path52" />
  <path
     class="st6"
     d="m 11.721323,4.7 c -1.6,1.5 -1.7,4.2 -0.4,6.1 0.5,0.8 1.8,2.2 2.7,1.6 0.9,-0.6 0,-2 -0.6,-3.6 -0.6,-1.6 0,-3.1 1.6,-3 0.4,-0.5 0.9,-0.9 1.6,-1.3 -1.6,-0.9 -3.6,-1.1 -4.9,0.2 z"
     id="path53" />
  <path
     class="st4"
     d="m 18.999729,12.231956 c -0.107956,0.503793 -0.61175,0.75569 -1.511382,0.75569 h -1.727293 c -0.179927,0 -0.287882,-0.07197 -0.287882,-0.215911 0,-0.251897 0.179927,-0.359853 0.395838,-0.359853 h 1.727293 c 0.431823,0 0.647735,-0.107956 0.68372,-0.251897 v -0.179926 c 0.03598,0 0.03598,0 0.03598,-0.03599 0,-0.143941 -0.179926,-0.215912 -0.503794,-0.215912 h -0.863646 c -0.719706,0 -1.115544,-0.179926 -1.115544,-0.539779 0,-0.359852 0,-0.107956 0,-0.143941 l 0.07197,-0.287879 c 0.107956,-0.503794 0.575764,-0.755691 1.403426,-0.755691 h 1.691308 c 0.179926,0 0.287882,0.07197 0.287882,0.215912 0,0.251897 -0.143941,0.359853 -0.395838,0.359853 h -1.691306 c -0.359853,0 -0.539779,0.07197 -0.575764,0.215912 v 0.179926 c -0.03598,0 -0.03598,0 -0.03598,0 0,0.107955 0.143941,0.179926 0.467809,0.179926 h 0.82766 c 0.791677,0 1.187515,0.215912 1.187515,0.611749 0,0.395839 0,0.107956 0,0.143942 l -0.07197,0.287882 z"
     id="path2"
     style="stroke-width:0.359852" />
  <path
     class="st5"
     d="M 5.4886242,5.2953155 C 5.5565057,4.921967 5.3019499,4.5655889 4.9286014,4.4128554 4.775868,4.3619443 4.470401,4.2940627 4.4025195,4.4637666 c -0.067882,0.1697038 0.1866742,0.2884965 0.44123,0.4242596 0.2545558,0.1357631 0.3224373,0.4242597 0.084852,0.5769932 0,0.1187927 -0.033941,0.220615 -0.084852,0.3394077 0.305467,-0.033941 0.5939635,-0.2036447 0.6448747,-0.526082 z"
     id="path60"
     style="stroke-width:0.169704"
     inkscape:export-filename="favicon_splash.png"
     inkscape:export-xdpi="96"
     inkscape:export-ydpi="96" />
  <path
     class="st2"
     d="M 4.1479637,6.3983906 C 4.5213122,6.3474794 4.7928384,5.9911013 4.8098087,5.6007824 4.8098087,5.4310786 4.775868,5.1256116 4.6061641,5.1086413 4.4364603,5.0916709 4.4025195,5.3801674 4.3346379,5.6516936 4.2667564,5.9232198 4.029171,6.0759533 3.808556,5.9062494 3.6897633,5.9401902 3.587941,5.9401902 3.4521779,5.9232198 3.5709706,6.2117163 3.8424967,6.415361 4.1479637,6.3814202 Z"
     id="path61"
     style="stroke-width:0.169704" />
  <path
     class="st0"
     d="M 2.6885105,5.448049 C 2.841244,5.7874567 3.2655036,5.9401902 3.6558225,5.8383678 3.808556,5.7874567 4.0970525,5.668664 4.0631118,5.4989601 4.029171,5.3292563 3.7406744,5.3801674 3.4521779,5.3971378 3.1636813,5.4141082 2.9430663,5.2444043 3.061859,4.9728782 3.0109478,4.8710558 2.9600367,4.7692335 2.9260959,4.6504408 2.7054809,4.8540855 2.5697178,5.1595524 2.7054809,5.448049 Z"
     id="path62"
     style="stroke-width:0.169704" />
  <path
     class="st3"
     d="M 4.8607199,3.6831288 C 4.5382826,3.4964546 4.0970525,3.6322177 3.8594671,3.9376846 3.7576448,4.0734477 3.6049113,4.3449739 3.7406744,4.4467962 3.8764375,4.5486185 4.0631118,4.3449739 4.2837268,4.17527 4.5043418,4.0055662 4.7928384,4.0055662 4.8437495,4.2770923 c 0.1018223,0.050911 0.2036446,0.1018224 0.305467,0.1866743 0.067882,-0.305467 0,-0.6279043 -0.2884966,-0.7806378 z"
     id="path63"
     style="stroke-width:0.169704" />
  <path
     class="st6"
     d="M 3.1297405,3.7849511 C 2.8582144,4.0395069 2.841244,4.4977074 3.061859,4.8201447 c 0.084852,0.1357631 0.3054669,0.3733485 0.4582004,0.2715262 0.1527335,-0.1018224 0,-0.3394078 -0.1018223,-0.6109339 -0.1018223,-0.2715262 0,-0.526082 0.2715262,-0.5091116 C 3.7576448,3.8867735 3.8424967,3.8188919 3.9612894,3.7510104 3.6897633,3.5982769 3.3503555,3.5643361 3.1297405,3.7849511 Z"
     id="path64"
     style="stroke-width:0.169704" />
  <path
     class="st4"
     d="M 4.3413822,5.0804725 C 4.3199555,5.1804636 4.2199642,5.2304592 4.0414086,5.2304592 H 3.6985817 c -0.035711,0 -0.057138,-0.014285 -0.057138,-0.042853 0,-0.049996 0.035711,-0.071422 0.078564,-0.071422 h 0.3428267 c 0.085707,0 0.12856,-0.021427 0.1357022,-0.049996 v -0.035711 c 0.00715,0 0.00715,0 0.00715,-0.00715 0,-0.028569 -0.035711,-0.042853 -0.099991,-0.042853 H 3.9342761 c -0.1428446,0 -0.221409,-0.035711 -0.221409,-0.1071338 0,-0.071421 0,-0.021427 0,-0.028569 l 0.014284,-0.057137 C 3.7485771,4.6876474 3.8414249,4.637652 4.0056968,4.637652 h 0.3356847 c 0.035711,0 0.057138,0.014284 0.057138,0.042853 0,0.049996 -0.028569,0.071423 -0.078564,0.071423 H 3.98427 c -0.071422,0 -0.107134,0.014285 -0.1142751,0.042853 v 0.035711 c -0.00715,0 -0.00715,0 -0.00715,0 0,0.021426 0.028569,0.035711 0.092849,0.035711 h 0.1642709 c 0.1571291,0 0.2356937,0.042853 0.2356937,0.1214178 0,0.078564 0,0.021427 0,0.028569 l -0.014284,0.057138 z"
     id="path65"
     style="stroke-width:0.0714222" />
</svg>
