<svg xmlns="http://www.w3.org/2000/svg" version="1.1" id="Layer_1" viewBox="0 0 16.820564 16.423843" sodipodi:docname="SPLASH_icon_RGB.svg" inkscape:version="1.3.2 (091e20e, 2023-11-25)" width="16.820564" height="16.423843" xmlns:inkscape="http://www.inkscape.org/namespaces/inkscape" xmlns:sodipodi="http://sodipodi.sourceforge.net/DTD/sodipodi-0.dtd" xmlns:svg="http://www.w3.org/2000/svg"><metadata><rdf:RDF xmlns:rdf="http://www.w3.org/1999/02/22-rdf-syntax-ns#" xmlns:dc="http://purl.org/dc/elements/1.1/"><rdf:Description><dc:creator>RealFaviconGenerator</dc:creator><dc:source>https://realfavicongenerator.net</dc:source></rdf:Description></rdf:RDF></metadata><sodipodi:namedview id="namedview53" pagecolor="#ffffff" bordercolor="#000000" borderopacity="0.25" inkscape:showpageshadow="2" inkscape:pageopacity="0.0" inkscape:pagecheckerboard="0" inkscape:deskcolor="#d1d1d1" inkscape:zoom="21.101834" inkscape:cx="11.468197" inkscape:cy="8.4589803" inkscape:window-width="1400" inkscape:window-height="846" inkscape:window-x="0" inkscape:window-y="25" inkscape:window-maximized="0" inkscape:current-layer="Layer_1"></sodipodi:namedview><defs id="defs1">
    <style id="style1">
      .st0 {
        fill: #1e75bb;
      }

      .st1 {
        fill: #fff;
      }

      .st2 {
        fill: #91298c;
      }

      .st3 {
        fill: #ed2d7b;
      }

      .st4 {
        fill: #4d4848;
      }

      .st5 {
        fill: #d6de27;
      }

      .st6 {
        fill: #f16623;
      }
    </style>
  </defs><path class="st5" d="m 13.419882,4.8020753 c -0.9,-0.3 -2.7,-0.7 -3.1,0.3 -0.3999996,1 1.1,1.7 2.6,2.5 1.5,0.8 1.9,2.4999997 0.5,3.3999997 0,0.7 -0.2,1.3 -0.5,2 1.8,-0.2 3.5,-1.2 3.85,-3.1999997 0.35,-2 -1.15,-4.1 -3.35,-5 z" id="path48" sodipodi:nodetypes="csscccc"></path><path class="st2" d="m 12.719882,11.802075 c 0,-1 -0.2,-2.7999997 -1.2,-2.8999997 -1,-0.1 -1.2,1.5999997 -1.5999996,3.1999997 -0.4,1.6 -1.8,2.5 -3.1,1.5 -0.7,0.2 -1.3,0.2 -2.1,0.1 0.7,1.7 2.3,2.9 4.3,2.7 1.9999996,-0.2 3.5999996,-2.3 3.6999996,-4.6 z" id="path50" sodipodi:nodetypes="csscccc"></path><path class="st0" d="m 5.9198824,13.202075 c 0.9,-0.3 2.6,-1 2.4,-2 -0.2,-1 -1.9,-0.7 -3.6,-0.6 -1.7,0.1 -3,-0.8999997 -2.3,-2.4999997 -0.3,-0.6 -0.6,-1.2 -0.8,-1.9 -1.29999996,1.2 -2.09999996,3 -1.29999996,4.8499997 0.79999996,1.85 3.29999996,2.75 5.59999996,2.15 z" id="path51" sodipodi:nodetypes="csscccc"></path><path class="st3" d="m 13.019882,0.50207527 c -1.9,-1.1 -4.4999996,-0.3 -5.8999996,1.50000003 -0.6,0.8 -1.5,2.4 -0.7,3 0.8,0.6 1.9,-0.6 3.2,-1.6 1.2999996,-1 2.9999996,-1 3.2999996,0.6 0.6,0.3 1.2,0.6 1.8,1.1 0.4,-1.8 0,-3.7 -1.7,-4.60000003 z" id="path52"></path><path class="st6" d="m 2.8198824,1.1020753 c -1.6,1.5 -1.7,4.2 -0.4,6.1 0.5,0.8 1.8,2.2 2.7,1.6 0.9,-0.6 0,-2 -0.6,-3.6 -0.6,-1.6 0,-3.1 1.6,-3 0.4,-0.5 0.9,-0.9 1.6,-1.30000003 -1.6,-0.9 -3.6,-1.1 -4.9,0.20000003 z" id="path53"></path><path class="st4" d="m 8.5869064,9.3897213 h -1.727293 c -0.179927,0 -0.287882,-0.07197 -0.287882,-0.215911 0,-0.251897 0.179927,-0.359853 0.395838,-0.359853 h 1.727293 c 0.431823,0 0.647735,-0.107956 0.68372,-0.251897 0.03351,-0.109001 0.03598,-0.110129 0.03598,-0.215916 0,-0.143941 -0.179926,-0.215912 -0.503794,-0.215912 h -0.863646 c -0.719706,0 -1.137642,-0.180605 -1.115544,-0.539779 0.01128,-0.183351 0.04792,-0.287521 0.07197,-0.43182 0.107956,-0.503794 0.575764,-0.755691 1.403426,-0.755691 h 1.6913076 c 0.179926,0 0.287882,0.07197 0.287882,0.215912 0,0.251897 -0.143941,0.359853 -0.3958376,0.359853 h -1.691306 c -0.359853,0 -0.486061,-0.0098 -0.575764,0.215912 -0.0897,0.22572 0.184318,0.349067 0.431829,0.359852 0.247511,0.01079 0.82766,0 0.82766,0 0.791677,0 1.1875146,0.215912 1.0975506,0.899632 -0.08996,0.683721 -0.5937576,0.935618 -1.4933896,0.935618 z" id="path2" style="stroke-width:0.359852" sodipodi:nodetypes="ssssscsssscssssszzscs"></path></svg>