<?xml version="1.0" encoding="UTF-8"?>
<svg width="128.03mm" height="51.957mm" version="1.1" viewBox="0 0 128.03 51.957" xml:space="preserve" xmlns="http://www.w3.org/2000/svg"><defs><clipPath id="e"><path d="m105.43 232.87 37.944-1.5203c1.3776-0.0552 2.4881 1.3162 2.4881 2.9512v11.067c0 1.635-1.1105 3.0064-2.4881 2.9512l-37.944-1.5203c-1.3776-0.0552-2.4881-1.3162-2.4881-2.9512v-8.0264c0-1.635 1.1105-2.896 2.4881-2.9512z" fill="#ca054d" stroke-linecap="round" stroke-linejoin="round" stroke-width=".34898"/><path d="m66.208 230.78 48.335-1.3509c1.7549-0.049 3.1695 1.1696 3.1695 2.6224v9.834c0 1.4528-1.4146 2.6714-3.1695 2.6224l-48.335-1.3509c-1.7549-0.049-3.1695-1.1696-3.1695-2.6224v-7.1322c0-1.4528 1.4146-2.5734 3.1695-2.6224z" fill="#f47d20" stroke-linecap="round" stroke-linejoin="round" stroke-width=".37128"/><path d="m83.399 211.8 62.464-2.11c2.2679-0.0766 4.096 1.8268 4.096 4.096v15.36c0 2.2692-1.8281 4.1726-4.096 4.096l-62.464-2.11c-2.2679-0.0766-4.096-1.8268-4.096-4.096v-11.14c0-2.2692 1.8281-4.0194 4.096-4.096z" fill="#3b1c32" stroke-linecap="round" stroke-linejoin="round" stroke-width=".5275"/><path d="m76.152 202.14 62.464-2.11c2.2679-0.0766 4.096 1.8268 4.096 4.096v15.36c0 2.2692-1.8281 4.1726-4.096 4.096l-62.464-2.11c-2.2679-0.0766-4.096-1.8268-4.096-4.096v-11.14c0-2.2692 1.8281-4.0194 4.096-4.096z" fill="#f47d20" stroke-linecap="round" stroke-linejoin="round" stroke-width=".5275"/><path d="m62.195 205.24 42.408-1.4325c1.5397-0.052 2.7809 1.2403 2.7809 2.7809v10.428c0 1.5406-1.2412 2.8329-2.7809 2.7809l-42.408-1.4325c-1.5397-0.052-2.7809-1.2403-2.7809-2.7809v-7.5632c0-1.5406 1.2412-2.7289 2.7809-2.7809z" fill="#a4d4b4" stroke-linecap="round" stroke-linejoin="round" stroke-width=".35813"/></clipPath><clipPath id="d"><path d="m76.152 202.14 62.464-2.11c2.2679-0.0766 4.096 1.8268 4.096 4.096v15.36c0 2.2692-1.8281 4.1726-4.096 4.096l-62.464-2.11c-2.2679-0.0766-4.096-1.8268-4.096-4.096v-11.14c0-2.2692 1.8281-4.0194 4.096-4.096z" fill="#f47d20" stroke-linecap="round" stroke-linejoin="round" stroke-width=".5275"/></clipPath><clipPath id="c"><path d="m31.588 211.18 93.992-3.175c3.4126-0.11528 6.1634 2.7489 6.1634 6.1634v23.113c0 3.4145-2.7508 6.2787-6.1634 6.1634l-93.992-3.175c-3.4126-0.11528-6.1634-2.7489-6.1634-6.1634v-16.763c0-3.4145 2.7508-6.0482 6.1634-6.1634z" stroke-linecap="round" stroke-linejoin="round" stroke-width=".79375"/></clipPath><clipPath id="b"><path d="m105.43 232.87 37.944-1.5203c1.3776-0.0552 2.4881 1.3162 2.4881 2.9512v11.067c0 1.635-1.1105 3.0064-2.4881 2.9512l-37.944-1.5203c-1.3776-0.0552-2.4881-1.3162-2.4881-2.9512v-8.0264c0-1.635 1.1105-2.896 2.4881-2.9512z" fill="#ca054d" stroke-linecap="round" stroke-linejoin="round" stroke-width=".34898"/></clipPath><clipPath id="a"><path d="m83.399 211.8 62.464-2.11c2.2679-0.0766 4.096 1.8268 4.096 4.096v15.36c0 2.2692-1.8281 4.1726-4.096 4.096l-62.464-2.11c-2.2679-0.0766-4.096-1.8268-4.096-4.096v-11.14c0-2.2692 1.8281-4.0194 4.096-4.096z" fill="#3b1c32" stroke-linecap="round" stroke-linejoin="round" stroke-width=".5275"/></clipPath><clipPath id="f"><path d="m90.341 244.61 37.944-1.5203c1.3776-0.0552 2.4881 1.3162 2.4881 2.9512v11.067c0 1.635-1.1105 3.0064-2.4881 2.9512l-37.944-1.5203c-1.3776-0.0552-2.4881-1.3162-2.4881-2.9512v-8.0264c0-1.635 1.1105-2.896 2.4881-2.9512z" fill="#ca054d" stroke-linecap="round" stroke-linejoin="round" stroke-width=".34898"/></clipPath></defs><g transform="translate(-891.61 -104.49)"><g transform="translate(6.0359 3.3564)"><g stroke-linecap="round" stroke-linejoin="round"><path d="m967.22 135.62 37.944-1.5203c1.3777-0.0552 2.4881 1.3162 2.4881 2.9512v11.067c0 1.635-1.1104 3.0064-2.4881 2.9512l-37.944-1.5203c-1.3776-0.0552-2.4881-1.3162-2.4881-2.9512v-8.0264c0-1.635 1.1105-2.896 2.4881-2.9512z" fill="#ca1551" stroke-width=".34898"/><path transform="translate(876.88 -109)" d="m51.648 243.05 48.335-1.3509c1.7549-0.049 3.1695 1.1696 3.1695 2.6224v9.834c0 1.4528-1.4146 2.6714-3.1695 2.6224l-48.335-1.3509c-1.7549-0.049-3.1695-1.1696-3.1695-2.6224v-7.1322c0-1.4528 1.4146-2.5734 3.1695-2.6224z" clip-path="url(#f)" opacity=".30412" stroke-width=".37128"/><path d="m928 133.52 48.335-1.3509c1.7549-0.049 3.1695 1.1696 3.1695 2.6224v9.834c0 1.4528-1.4146 2.6714-3.1695 2.6224l-48.335-1.3509c-1.7549-0.049-3.1695-1.1696-3.1695-2.6224v-7.1322c0-1.4528 1.4146-2.5734 3.1695-2.6224z" fill="#ff7900" stroke-width=".37128"/><path transform="translate(861.79 -97.259)" d="m83.399 212.33 62.464-2.11c2.2679-0.0766 4.096 1.8268 4.096 4.096v15.36c0 2.2692-1.8281 4.1726-4.096 4.096l-62.464-2.11c-2.2679-0.0766-4.096-1.8268-4.096-4.096v-11.14c0-2.2692 1.8281-4.0194 4.096-4.096z" clip-path="url(#b)" opacity=".30155" stroke-width=".5275"/><path d="m945.19 114.55 62.464-2.11c2.2679-0.0766 4.096 1.8268 4.096 4.096v15.36c0 2.2692-1.8281 4.1726-4.096 4.096l-62.464-2.11c-2.2679-0.0766-4.096-1.8268-4.096-4.096v-11.14c0-2.2692 1.8281-4.0194 4.096-4.096z" fill="#03cea4" stroke-width=".5275"/><path transform="translate(861.79 -97.259)" d="m76.681 202.67 62.464-2.11c2.2679-0.0766 4.096 1.8268 4.096 4.096v15.36c0 2.2692-1.8281 4.1726-4.096 4.096l-62.464-2.11c-2.2679-0.0766-4.096-1.8268-4.096-4.096v-11.14c0-2.2692 1.8281-4.0194 4.096-4.096z" clip-path="url(#a)" opacity=".30155" stroke-width=".5275"/><path d="m937.95 104.88 62.464-2.11c2.2679-0.0766 4.096 1.8268 4.096 4.096v15.36c0 2.2692-1.8281 4.1726-4.096 4.096l-62.464-2.11c-2.2679-0.0766-4.096-1.8268-4.096-4.096v-11.14c0-2.2692 1.8281-4.0194 4.096-4.096z" fill="#005472" stroke-width=".5275"/><path transform="translate(861.79 -97.259)" d="m62.724 204.71 42.408-1.4325c1.5397-0.052 2.7809 1.2403 2.7809 2.7809v10.428c0 1.5406-1.2412 2.8329-2.7809 2.7809l-42.408-1.4325c-1.5397-0.052-2.7809-1.2403-2.7809-2.7809v-7.5632c0-1.5406 1.2412-2.7289 2.7809-2.7809z" clip-path="url(#d)" opacity=".3067" stroke-width=".35813"/><path d="m923.99 107.98 42.408-1.4325c1.5397-0.052 2.7809 1.2403 2.7809 2.7809v10.428c0 1.5406-1.2412 2.8329-2.7809 2.7809l-42.408-1.4325c-1.5397-0.052-2.7809-1.2403-2.7809-2.7809v-7.5632c0-1.5406 1.2412-2.7289 2.7809-2.7809z" fill="#ff7900" stroke-width=".35813"/><path transform="translate(861.79 -96.73)" d="m32.646 209.59 93.992-3.175c3.4126-0.11528 6.1634 2.7489 6.1634 6.1634v23.113c0 3.4145-2.7508 6.2787-6.1634 6.1634l-93.992-3.175c-3.4126-0.11528-6.1634-2.7489-6.1634-6.1634v-16.763c0-3.4145 2.7508-6.0482 6.1634-6.1634z" clip-path="url(#e)" opacity=".29897" stroke-width=".79375"/><path transform="translate(861.79 -97.259)" d="m66.208 230.78 48.335-1.3509c1.7549-0.049 3.1695 1.1696 3.1695 2.6224v9.834c0 1.4528-1.4146 2.6714-3.1695 2.6224l-48.335-1.3509c-1.7549-0.049-3.1695-1.1696-3.1695-2.6224v-7.1322c0-1.4528 1.4146-2.5734 3.1695-2.6224z" clip-path="url(#c)" fill="#345995" opacity=".30155" stroke-width=".37128"/><path d="m893.38 113.39 93.992-3.175c3.4126-0.11528 6.1634 2.7489 6.1634 6.1634v23.113c0 3.4145-2.7508 6.2787-6.1634 6.1634l-93.992-3.175c-3.4126-0.11528-6.1634-2.7489-6.1634-6.1634v-16.763c0-3.4145 2.7508-6.0482 6.1634-6.1634z" fill="#4f1c46" stroke-width=".79375"/><path d="m910.9 130.43q0 0.82945-0.39089 1.6398-0.38136 0.81038-1.0773 1.3729-0.76271 0.61017-1.7828 0.95339-1.0106 0.34322-2.4407 0.34322-1.535 0-2.7648-0.28602-1.2203-0.28601-2.4883-0.84851v-2.3644h0.13347q1.0773 0.89619 2.4883 1.3824 1.411 0.48622 2.6504 0.48622 1.7542 0 2.7267-0.65783 0.98199-0.65784 0.98199-1.7542 0-0.94385-0.46716-1.392-0.45763-0.44809-1.4015-0.69597-0.71505-0.19068-1.554-0.31462-0.82945-0.12394-1.7638-0.31462-1.8877-0.40042-2.803-1.3633-0.90572-0.97246-0.90572-2.5265 0-1.7828 1.5064-2.9174 1.5064-1.1441 3.8231-1.1441 1.4968 0 2.7458 0.28602t2.2119 0.70551v2.2309h-0.13347q-0.81038-0.68644-2.1356-1.1345-1.3157-0.45762-2.6981-0.45762-1.5159 0-2.4407 0.62923-0.91525 0.62924-0.91525 1.6208 0 0.88666 0.45763 1.392 0.45762 0.5053 1.6112 0.77225 0.61016 0.13347 1.7352 0.32415t1.9068 0.39089q1.5826 0.41949 2.3835 1.268 0.80085 0.84852 0.80085 2.3739z" opacity=".20047" stroke="#000" stroke-width="1.7296" aria-label="S"/><path d="m910.37 129.9q0 0.82945-0.39089 1.6398-0.38135 0.81038-1.0773 1.3729-0.76271 0.61017-1.7828 0.95339-1.0106 0.34322-2.4407 0.34322-1.535 0-2.7648-0.28602-1.2203-0.28601-2.4884-0.84851v-2.3644h0.13348q1.0773 0.89619 2.4883 1.3824t2.6504 0.48623q1.7542 0 2.7267-0.65784 0.98199-0.65784 0.98199-1.7542 0-0.94385-0.46716-1.392-0.45762-0.44809-1.4015-0.69597-0.71504-0.19068-1.554-0.31462-0.82945-0.12394-1.7638-0.31462-1.8877-0.40042-2.803-1.3633-0.90572-0.97246-0.90572-2.5265 0-1.7828 1.5064-2.9174 1.5064-1.1441 3.8231-1.1441 1.4968 0 2.7458 0.28602t2.2119 0.70551v2.2309h-0.13347q-0.81038-0.68644-2.1356-1.1345-1.3157-0.45762-2.6981-0.45762-1.5159 0-2.4407 0.62923-0.91525 0.62924-0.91525 1.6208 0 0.88666 0.45762 1.392 0.45763 0.5053 1.6112 0.77225 0.61017 0.13347 1.7352 0.32415t1.9068 0.39089q1.5826 0.41949 2.3835 1.268 0.80084 0.84851 0.80084 2.3739z" fill="#efe5dc" stroke="#efe5dc" stroke-width="1.7296" aria-label="S"/><path d="m983.18 134.48h-1.8877v-6.9502h-7.0837v6.9502h-1.8877v-14.196h1.8877v5.5678h7.0837v-5.5678h1.8877z" opacity=".20047" stroke="#000" stroke-width="1.7296" aria-label="H"/><path d="m982.65 133.95h-1.8878v-6.9502h-7.0836v6.9502h-1.8877v-14.196h1.8877v5.5678h7.0836v-5.5678h1.8878z" fill="#efe5dc" stroke="#efe5dc" stroke-width="1.7296" aria-label="H"/><path d="m924.06 124.57q0 0.94385-0.33369 1.7542-0.32415 0.80085-0.91525 1.392-0.73411 0.73411-1.7352 1.1059-1.001 0.36229-2.5265 0.36229h-1.8877v5.2913h-1.8877v-14.196h3.8517q1.2776 0 2.1642 0.21928 0.88665 0.20974 1.5731 0.66737 0.81038 0.54343 1.2489 1.3538 0.44809 0.81038 0.44809 2.0498zm-1.964 0.0477q0-0.73411-0.25742-1.2776-0.25741-0.54343-0.78177-0.88665-0.45763-0.29555-1.0487-0.41949-0.58157-0.13347-1.4778-0.13347h-1.8686v5.6727h1.5922q1.1441 0 1.8591-0.20021 0.71504-0.20975 1.1631-0.65784 0.44809-0.45763 0.62923-0.96292 0.19068-0.5053 0.19068-1.1345z" opacity=".20047" stroke="#000" stroke-width="1.7296" aria-label="P"/><path d="m923.53 124.05q0 0.94385-0.33369 1.7542-0.32415 0.80085-0.91525 1.392-0.73411 0.73411-1.7352 1.1059-1.0011 0.36229-2.5265 0.36229h-1.8877v5.2913h-1.8877v-14.196h3.8517q1.2775 0 2.1642 0.21928 0.88665 0.20974 1.5731 0.66737 0.81038 0.54343 1.2489 1.3538 0.4481 0.81038 0.4481 2.0498zm-1.964 0.0477q0-0.73411-0.25741-1.2775-0.25742-0.54344-0.78178-0.88666-0.45763-0.29555-1.0487-0.41949-0.58156-0.13347-1.4778-0.13347h-1.8686v5.6727h1.5922q1.1441 0 1.8591-0.20021 0.71504-0.20975 1.1631-0.65784 0.44809-0.45763 0.62924-0.96292 0.19067-0.5053 0.19067-1.1345z" fill="#efe5dc" stroke="#efe5dc" stroke-width="1.7296" aria-label="P"/><path d="m936.91 134.48h-8.9809v-14.196h1.8877v12.518h7.0932z" opacity=".20047" stroke="#000" stroke-width="1.7296" aria-label="L"/><path d="m936.38 133.95h-8.9809v-14.196h1.8877v12.518h7.0932z" fill="#efe5dc" stroke="#efe5dc" stroke-width="1.7296" aria-label="L"/><path d="m953.63 134.48h-2.0116l-1.392-3.9566h-6.1398l-1.392 3.9566h-1.9163l5.1674-14.196h2.517zm-3.9852-5.5773-2.4883-6.9693-2.4979 6.9693z" opacity=".20047" stroke="#000" stroke-width="1.7296" aria-label="A"/><path d="m953.1 133.95h-2.0116l-1.3919-3.9566h-6.1398l-1.392 3.9566h-1.9163l5.1674-14.196h2.517zm-3.9852-5.5773-2.4884-6.9693-2.4979 6.9693z" fill="#efe5dc" stroke="#efe5dc" stroke-width="1.7296" aria-label="A"/><path d="m968.45 130.43q0 0.82945-0.39089 1.6398-0.38135 0.81038-1.0773 1.3729-0.76271 0.61017-1.7828 0.95339-1.0106 0.34322-2.4407 0.34322-1.535 0-2.7648-0.28602-1.2203-0.28601-2.4884-0.84851v-2.3644h0.13348q1.0773 0.89619 2.4883 1.3824 1.411 0.48622 2.6504 0.48622 1.7542 0 2.7267-0.65783 0.98199-0.65784 0.98199-1.7542 0-0.94385-0.46716-1.392-0.45762-0.44809-1.4015-0.69597-0.71504-0.19068-1.554-0.31462-0.82945-0.12394-1.7638-0.31462-1.8877-0.40042-2.803-1.3633-0.90572-0.97246-0.90572-2.5265 0-1.7828 1.5064-2.9174 1.5064-1.1441 3.8231-1.1441 1.4968 0 2.7458 0.28602t2.2119 0.70551v2.2309h-0.13347q-0.81039-0.68644-2.1356-1.1345-1.3157-0.45762-2.6981-0.45762-1.5159 0-2.4407 0.62923-0.91525 0.62924-0.91525 1.6208 0 0.88666 0.45762 1.392 0.45763 0.5053 1.6112 0.77225 0.61017 0.13347 1.7352 0.32415t1.9068 0.39089q1.5826 0.41949 2.3835 1.268 0.80084 0.84852 0.80084 2.3739z" opacity=".20047" stroke="#000" stroke-width="1.7296" aria-label="S"/><path d="m967.92 129.9q0 0.82945-0.39089 1.6398-0.38136 0.81038-1.0773 1.3729-0.76271 0.61017-1.7828 0.95339-1.0106 0.34322-2.4407 0.34322-1.535 0-2.7648-0.28602-1.2203-0.28601-2.4883-0.84851v-2.3644h0.13347q1.0773 0.89619 2.4884 1.3824 1.411 0.48623 2.6504 0.48623 1.7542 0 2.7267-0.65784 0.98199-0.65784 0.98199-1.7542 0-0.94385-0.46716-1.392-0.45763-0.44809-1.4015-0.69597-0.71504-0.19068-1.554-0.31462-0.82945-0.12394-1.7638-0.31462-1.8877-0.40042-2.803-1.3633-0.90572-0.97246-0.90572-2.5265 0-1.7828 1.5064-2.9174 1.5064-1.1441 3.8231-1.1441 1.4968 0 2.7458 0.28602 1.2489 0.28602 2.2119 0.70551v2.2309h-0.13348q-0.81038-0.68644-2.1356-1.1345-1.3157-0.45762-2.6981-0.45762-1.5159 0-2.4407 0.62923-0.91526 0.62924-0.91526 1.6208 0 0.88666 0.45763 1.392 0.45763 0.5053 1.6112 0.77225 0.61016 0.13347 1.7352 0.32415t1.9068 0.39089q1.5826 0.41949 2.3835 1.268 0.80085 0.84851 0.80085 2.3739z" fill="#efe5dc" stroke="#efe5dc" stroke-width="1.7296" aria-label="S"/><path d="m1009.6 148.48a4.3319 4.3319 0 0 1-4.3319 4.3319" fill="none" opacity=".29966" stroke="#3b1c32" stroke-width=".553"/><path transform="rotate(-90)" d="m-101.41 1001.5a4.3319 4.3319 0 0 1-4.3319 4.3319" fill="none" opacity=".29966" stroke="#3b1c32" stroke-width=".553"/><path transform="scale(-1)" d="m-919.63-111.23a4.3319 4.3319 0 0 1-4.3319 4.3319" fill="none" opacity=".29966" stroke="#3b1c32" stroke-width=".553"/><path transform="rotate(-90)" d="m-108.75 991.37a4.3319 4.3319 0 0 1-4.3319 4.3319" fill="none" opacity=".29966" stroke="#efe5dc" stroke-width=".553"/><path d="m890.18 143.18a4.3319 4.3319 0 0 1-4.3319-4.3319" fill="none" opacity=".29966" stroke="#3b1c32" stroke-width=".553"/><path d="m1013.3 133.14a4.3319 4.3319 0 0 1-4.3319 4.3319" fill="none" opacity=".29966" stroke="#3b1c32" stroke-width=".553"/><path d="m936.67 147.53 9.7316 0.16204" fill="none" opacity=".29966" stop-color="#000000" stroke="#3b1c32" stroke-width=".553" style="-inkscape-stroke:none;font-variation-settings:normal"/><path d="m980.65 150.87 9.7251 0.38964" fill="none" opacity=".29966" stop-color="#000000" stroke="#3b1c32" stroke-width=".553" style="-inkscape-stroke:none;font-variation-settings:normal"/><path d="m955.27 103.41-9.7274 0.3282" fill="none" opacity=".29966" stop-color="#000000" stroke="#3b1c32" stroke-width=".553" style="-inkscape-stroke:none;font-variation-settings:normal"/></g></g></g></svg>
