<?xml version="1.0" encoding="UTF-8"?>
<svg width="126px" height="50px" viewBox="0 0 126 50" version="1.1" xmlns="http://www.w3.org/2000/svg" xmlns:xlink="http://www.w3.org/1999/xlink">
    <title>Group</title>
    <g id="Page-1" stroke="none" stroke-width="1" fill="none" fill-rule="evenodd">
        <g id="SPLAS_logo" fill-rule="nonzero">
            <g id="Group" transform="translate(0.706287, 0.895854)">
                <path d="M80.0062746,32.8474744 L117.950253,31.3272144 C119.327893,31.2720144 120.438383,32.6434444 120.438383,34.2784144 L120.438383,45.3453544 C120.438383,46.9803144 119.327883,48.3517344 117.950253,48.2965344 L80.0062746,46.7762744 C78.6286346,46.7210744 77.5181446,45.4600444 77.5181446,43.8250844 L77.5181446,35.7986744 C77.5181446,34.1637144 78.6286346,32.9026844 80.0062746,32.8474744 L80.0062746,32.8474744 Z" id="path81" fill="#CA054D"></path>
                <path d="M40.7836946,30.7540244 L89.1187346,29.4031444 C90.8736446,29.3541444 92.2882626,30.5727344 92.2882626,32.0255444 L92.2882626,41.8595344 C92.2882626,43.3123344 90.8736446,44.5309644 89.1187346,44.4819244 L40.7836946,43.1310244 C39.0287836,43.0820244 37.6141816,41.9614344 37.6141816,40.5086344 L37.6141816,33.3764344 C37.6141816,31.9236244 39.0287836,30.8030844 40.7836946,30.7540244 L40.7836946,30.7540244 Z" id="path82" fill="#F47D20"></path>
                <path d="M57.9747116,11.7781744 L120.438383,9.66819437 C122.706263,9.59159437 124.534373,11.4950044 124.534373,13.7641844 L124.534373,29.1241044 C124.534373,31.3932744 122.706263,33.2966844 120.438383,33.2200744 L57.9747106,31.1100844 C55.7068316,31.0334844 53.8787326,29.2832744 53.8787326,27.0141044 L53.8787326,15.8741644 C53.8787326,13.6049944 55.7068316,11.8547944 57.9747116,11.7781744 L57.9747116,11.7781744 Z" id="path84" fill="#3B1C32"></path>
                <path d="M50.7279856,2.11221437 L113.191653,0.002234373 C115.459543,-0.074365627 117.287643,1.82904437 117.287643,4.09822437 L117.287643,19.4581444 C117.287643,21.7273144 115.459543,23.6307244 113.191653,23.5541144 L50.7279846,21.4441244 C48.4601056,21.3675244 46.6320066,19.6173144 46.6320066,17.3481444 L46.6320066,6.20820437 C46.6320066,3.93903437 48.4601056,2.18883437 50.7279856,2.11221437 Z" id="path86" fill="#F47D20"></path>
                <path d="M36.7704816,5.21566437 L79.1789346,3.78313437 C80.7186646,3.73113437 81.9598246,5.02341437 81.9598246,6.56402437 L81.9598246,16.9923344 C81.9598246,18.5329444 80.7186646,19.8252244 79.1789346,19.7732144 L36.7704816,18.3406744 C35.2307506,18.2886744 33.9895996,17.1004044 33.9895996,15.5597944 L33.9895996,7.99655437 C33.9895996,6.45594437 35.2307506,5.26768437 36.7704816,5.21566437 L36.7704816,5.21566437 Z" id="path88" fill="#A4D4B4"></path>
                <path d="M6.1634236,10.6195144 L100.155633,7.44451437 C103.568223,7.32923437 106.319063,10.1934044 106.319063,13.6079444 L106.319063,36.7207844 C106.319063,40.1353244 103.568223,42.9994844 100.155633,42.8842044 L6.1634236,39.7092044 C2.7508326,39.5939244 0,36.9603244 0,33.5457844 L0,16.7829444 C0,13.3684044 2.7508326,10.7347944 6.1634236,10.6195144 Z" id="path91" fill="#005472"></path>
                <text id="tspan91" stroke="#F1EBEB" stroke-width="1.72961" fill="#F1EBEB" stroke-linecap="round" stroke-linejoin="round" font-family="Visage-Regular, Visage" font-size="19.5254" font-weight="normal">
                    <tspan x="13.0316026" y="31.1834994">S</tspan>
                </text>
                <text id="tspan92" stroke="#F1EBEB" stroke-width="1.72961" fill="#F1EBEB" stroke-linecap="round" stroke-linejoin="round" font-family="Visage-Regular, Visage" font-size="19.5254" font-weight="normal">
                    <tspan x="85.4253956" y="31.1834994">H</tspan>
                </text>
                <text id="tspan93" stroke="#F1EBEB" stroke-width="1.72961" fill="#F1EBEB" stroke-linecap="round" stroke-linejoin="round" font-family="Visage-Regular, Visage" font-size="19.5254" font-weight="normal">
                    <tspan x="26.9311256" y="31.1834994">P</tspan>
                </text>
                <text id="tspan94" stroke="#F1EBEB" stroke-width="1.72961" fill="#F1EBEB" stroke-linecap="round" stroke-linejoin="round" font-family="Visage-Regular, Visage" font-size="19.5254" font-weight="normal">
                    <tspan x="40.1346776" y="31.1834994">L</tspan>
                </text>
                <text id="tspan95" stroke="#F1EBEB" stroke-width="1.72961" fill="#F1EBEB" stroke-linecap="round" stroke-linejoin="round" font-family="Visage-Regular, Visage" font-size="19.5254" font-weight="normal">
                    <tspan x="53.8842966" y="31.1834994">A</tspan>
                </text>
                <text id="tspan96" stroke="#F1EBEB" stroke-width="1.72961" fill="#F1EBEB" stroke-linecap="round" stroke-linejoin="round" font-family="Visage-Regular, Visage" font-size="19.5254" font-weight="normal">
                    <tspan x="70.5767246" y="31.1834994">S</tspan>
                </text>
            </g>
        </g>
    </g>
</svg>