<?xml version="1.0" standalone="no"?>
<!DOCTYPE svg PUBLIC "-//W3C//DTD SVG 20010904//EN"
 "http://www.w3.org/TR/2001/REC-SVG-20010904/DTD/svg10.dtd">
<svg version="1.0" xmlns="http://www.w3.org/2000/svg"
 width="660.000000pt" height="660.000000pt" viewBox="0 0 660.000000 660.000000"
 preserveAspectRatio="xMidYMid meet">
<metadata>
Created by potrace 1.14, written by Peter Selinger 2001-2017
</metadata>
<g transform="translate(0.000000,660.000000) scale(0.100000,-0.100000)"
fill="#000000" stroke="none">
<path d="M5087 6245 c-20 -19 -20 -20 -7 -46 8 -13 21 -19 48 -19 70 -1 177
-30 261 -71 190 -94 314 -280 337 -502 5 -53 11 -70 26 -78 15 -8 24 -7 39 7
18 16 19 26 13 84 -18 173 -85 313 -209 436 -118 117 -258 182 -430 200 -50 5
-64 3 -78 -11z"/>
<path d="M4255 6000 c-264 -21 -757 -59 -1095 -84 -338 -26 -651 -54 -695 -62
-271 -54 -487 -200 -582 -394 -23 -47 -45 -102 -49 -122 -3 -21 -9 -38 -13
-38 -32 0 -600 -53 -681 -64 -420 -57 -745 -320 -852 -691 l-23 -80 0 -1260 0
-1260 23 -80 c109 -375 440 -640 867 -694 44 -6 246 -25 448 -43 l369 -32 27
-60 c82 -179 310 -310 616 -356 39 -5 383 -28 765 -50 382 -22 886 -51 1120
-65 467 -28 583 -30 680 -14 87 14 217 59 288 100 82 49 193 162 228 234 l29
60 3 496 3 496 62 17 c315 86 529 278 566 506 14 83 15 1758 1 1850 -12 83
-64 189 -130 262 -99 111 -287 214 -460 254 l-79 17 -3 286 c-4 262 -6 292
-26 351 -37 112 -89 187 -217 316 -109 109 -129 125 -215 166 -190 92 -250 95
-975 38z m-1458 -1575 c186 -25 431 -92 542 -149 56 -29 61 -53 61 -279 0
-196 -1 -205 -23 -238 -47 -70 -141 -74 -223 -8 -59 48 -227 125 -334 153
-291 77 -561 39 -650 -91 -18 -26 -23 -47 -23 -93 1 -81 23 -118 95 -154 56
-27 105 -38 488 -111 534 -101 752 -303 754 -700 1 -99 -3 -133 -22 -195 -69
-218 -192 -361 -402 -469 -174 -89 -323 -121 -570 -121 -292 1 -555 56 -806
170 -96 43 -98 50 -102 274 -2 104 -1 204 3 222 13 71 89 123 160 110 19 -4
62 -28 97 -53 218 -161 518 -249 761 -223 221 23 336 104 337 238 0 103 -34
141 -160 181 -68 21 -115 31 -400 81 -283 50 -450 118 -573 231 -134 122 -197
263 -205 460 -6 140 12 235 63 337 111 218 360 383 649 427 114 18 344 18 483
0z"/>
<path d="M6532 2488 c-7 -7 -12 -28 -12 -47 -1 -69 -30 -177 -71 -260 -95
-192 -275 -312 -507 -336 -74 -8 -96 -31 -63 -64 22 -22 71 -21 187 5 282 62
499 315 530 619 5 50 3 64 -11 78 -19 20 -36 22 -53 5z"/>
<path d="M10 1795 c-9 -11 -11 -33 -6 -78 11 -99 25 -146 73 -245 92 -193 271
-332 485 -376 97 -20 142 -20 162 0 19 18 19 20 6 45 -8 14 -22 19 -53 19
-205 1 -436 149 -529 340 -34 69 -64 183 -70 270 -3 29 -7 35 -29 38 -14 2
-31 -4 -39 -13z"/>
<path d="M5918 1068 c-10 -9 -18 -38 -22 -83 -29 -300 -264 -533 -565 -561
-74 -7 -98 -23 -85 -58 9 -23 39 -29 107 -21 162 19 297 85 418 205 122 122
185 254 204 432 6 53 4 68 -10 81 -20 20 -26 21 -47 5z"/>
</g>
</svg>
