<?xml version="1.0" encoding="UTF-8" standalone="no"?>
<!DOCTYPE svg PUBLIC "-//W3C//DTD SVG 1.1//EN" "http://www.w3.org/Graphics/SVG/1.1/DTD/svg11.dtd">
<svg width="100%" height="100%" viewBox="0 0 2481 3508" version="1.1" xmlns="http://www.w3.org/2000/svg" xmlns:xlink="http://www.w3.org/1999/xlink" xml:space="preserve" xmlns:serif="http://www.serif.com/" style="fill-rule:evenodd;clip-rule:evenodd;stroke-linecap:round;stroke-linejoin:round;stroke-miterlimit:1.5;">
    <g transform="matrix(1,0,0,1,0,-30.5521)">
        <g transform="matrix(1,0,0,0.83442,-3.35246,-618.66)">
            <path d="M2103.02,1498.16C2103.02,1436.21 2061.05,1385.91 2009.36,1385.91L1381.93,1385.91C1330.24,1385.91 1288.27,1436.21 1288.27,1498.16L1288.27,2347.1C1288.27,2409.05 1330.24,2459.34 1381.93,2459.34L2009.36,2459.34C2061.05,2459.34 2103.02,2409.05 2103.02,2347.1L2103.02,1498.16Z" style="fill:white;stroke:rgb(3,206,164);stroke-width:4.52px;"/>
        </g>
        <g transform="matrix(1,0,0,1,-44.0643,-876.263)">
            <clipPath id="_clip1">
                <path d="M2143.73,1507.7C2143.73,1456.01 2101.76,1414.04 2050.07,1414.04L1422.64,1414.04C1370.95,1414.04 1328.98,1456.01 1328.98,1507.7L1328.98,2393.8C1328.98,2445.5 1370.95,2487.47 1422.64,2487.47L2050.07,2487.47C2101.76,2487.47 2143.73,2445.5 2143.73,2393.8L2143.73,1507.7Z"/>
            </clipPath>
            <g clip-path="url(#_clip1)">
                <circle cx="1301.43" cy="1400.97" r="266.843" style="fill:none;stroke:rgb(239,229,220);stroke-width:29.17px;"/>
            </g>
        </g>
        <g transform="matrix(4.16667,0,0,4.16667,-12765.4,-931.217)">
            <path d="M3454.02,389.367C3454.02,390.424 3453.78,391.383 3453.32,392.242C3452.86,393.101 3452.25,393.768 3451.49,394.242C3450.95,394.57 3450.36,394.807 3449.7,394.953C3449.05,395.099 3448.19,395.172 3447.12,395.172L3444.19,395.172L3444.19,383.539L3447.09,383.539C3448.23,383.539 3449.13,383.622 3449.8,383.789C3450.47,383.95 3451.04,384.174 3451.5,384.461C3452.29,384.955 3452.91,385.614 3453.35,386.437C3453.79,387.26 3454.02,388.237 3454.02,389.367L3454.02,389.367ZM3452.4,389.344C3452.4,388.433 3452.24,387.665 3451.92,387.04C3451.6,386.415 3451.13,385.922 3450.5,385.563C3450.04,385.303 3449.56,385.123 3449.04,385.024C3448.52,384.92 3447.91,384.868 3447.19,384.868L3445.74,384.868L3445.74,393.844L3447.19,393.844C3447.93,393.844 3448.58,393.79 3449.13,393.68C3449.69,393.571 3450.2,393.368 3450.66,393.071C3451.24,392.701 3451.68,392.214 3451.96,391.61C3452.25,391.006 3452.4,390.25 3452.4,389.344L3452.4,389.344ZM3463.7,390.961L3457.27,390.961C3457.27,391.498 3457.35,391.967 3457.51,392.368C3457.68,392.764 3457.9,393.089 3458.18,393.344C3458.45,393.594 3458.77,393.782 3459.14,393.907C3459.51,394.032 3459.93,394.094 3460.37,394.094C3460.97,394.094 3461.56,393.977 3462.16,393.743C3462.77,393.503 3463.2,393.269 3463.45,393.039L3463.53,393.039L3463.53,394.641C3463.03,394.849 3462.53,395.024 3462.01,395.164C3461.5,395.305 3460.96,395.375 3460.39,395.375C3458.94,395.375 3457.81,394.985 3457,394.203C3456.18,393.417 3455.78,392.302 3455.78,390.86C3455.78,389.433 3456.17,388.3 3456.94,387.461C3457.72,386.623 3458.75,386.203 3460.02,386.203C3461.2,386.203 3462.1,386.547 3462.74,387.235C3463.38,387.922 3463.7,388.899 3463.7,390.164L3463.7,390.961ZM3462.27,389.836C3462.27,389.066 3462.08,388.469 3461.69,388.047C3461.31,387.626 3460.73,387.415 3459.95,387.415C3459.16,387.415 3458.53,387.646 3458.06,388.11C3457.6,388.573 3457.34,389.149 3457.27,389.836L3462.27,389.836ZM3473.48,386.446L3469.95,395.172L3468.47,395.172L3464.96,386.446L3466.56,386.446L3469.26,393.391L3471.94,386.446L3473.48,386.446ZM3482.56,390.962L3476.13,390.962C3476.13,391.498 3476.21,391.967 3476.37,392.368C3476.53,392.764 3476.76,393.089 3477.04,393.344C3477.31,393.594 3477.63,393.782 3478,393.907C3478.37,394.032 3478.79,394.094 3479.23,394.094C3479.83,394.094 3480.42,393.977 3481.02,393.743C3481.63,393.503 3482.06,393.269 3482.31,393.04L3482.39,393.04L3482.39,394.641C3481.9,394.849 3481.39,395.024 3480.88,395.165C3480.36,395.305 3479.82,395.375 3479.25,395.375C3477.8,395.375 3476.67,394.985 3475.86,394.204C3475.05,393.417 3474.64,392.302 3474.64,390.86C3474.64,389.433 3475.03,388.3 3475.81,387.461C3476.59,386.623 3477.61,386.204 3478.88,386.204C3480.06,386.204 3480.97,386.547 3481.6,387.235C3482.24,387.922 3482.56,388.899 3482.56,390.164L3482.56,390.962ZM3481.13,389.837C3481.13,389.066 3480.94,388.469 3480.55,388.047C3480.17,387.626 3479.59,387.415 3478.81,387.415C3478.02,387.415 3477.39,387.646 3476.92,388.11C3476.46,388.574 3476.2,389.149 3476.13,389.837L3481.13,389.837ZM3486.27,395.172L3484.81,395.172L3484.81,383.016L3486.27,383.016L3486.27,395.172ZM3496.62,390.813C3496.62,392.235 3496.25,393.357 3495.52,394.18C3494.79,395.003 3493.82,395.415 3492.59,395.415C3491.36,395.415 3490.38,395.003 3489.65,394.18C3488.93,393.357 3488.56,392.235 3488.56,390.813C3488.56,389.391 3488.93,388.269 3489.65,387.446C3490.38,386.618 3491.36,386.204 3492.59,386.204C3493.82,386.204 3494.79,386.618 3495.52,387.446C3496.25,388.269 3496.62,389.391 3496.62,390.813ZM3495.1,390.813C3495.1,389.683 3494.88,388.844 3494.44,388.297C3493.99,387.745 3493.38,387.469 3492.59,387.469C3491.8,387.469 3491.18,387.745 3490.74,388.297C3490.3,388.844 3490.08,389.683 3490.08,390.813C3490.08,391.907 3490.3,392.738 3490.74,393.305C3491.18,393.868 3491.8,394.149 3492.59,394.149C3493.38,394.149 3493.99,393.87 3494.43,393.313C3494.88,392.751 3495.1,391.917 3495.1,390.813ZM3506.57,390.704C3506.57,391.412 3506.47,392.06 3506.27,392.649C3506.06,393.232 3505.78,393.727 3505.41,394.133C3505.06,394.519 3504.66,394.818 3504.19,395.032C3503.72,395.24 3503.23,395.344 3502.71,395.344C3502.26,395.344 3501.85,395.295 3501.48,395.196C3501.11,395.097 3500.74,394.943 3500.36,394.735L3500.36,398.391L3498.89,398.391L3498.89,386.446L3500.36,386.446L3500.36,387.36C3500.75,387.032 3501.19,386.758 3501.67,386.539C3502.16,386.316 3502.68,386.204 3503.24,386.204C3504.29,386.204 3505.1,386.602 3505.69,387.399C3506.28,388.191 3506.57,389.292 3506.57,390.703L3506.57,390.704ZM3505.06,390.743C3505.06,389.691 3504.88,388.904 3504.52,388.383C3504.16,387.863 3503.6,387.602 3502.86,387.602C3502.44,387.602 3502.01,387.693 3501.59,387.876C3501.16,388.058 3500.75,388.298 3500.36,388.594L3500.36,393.54C3500.78,393.727 3501.13,393.855 3501.43,393.923C3501.73,393.99 3502.07,394.024 3502.45,394.024C3503.27,394.024 3503.91,393.748 3504.37,393.196C3504.83,392.644 3505.06,391.826 3505.06,390.743L3505.06,390.743Z" style="fill:rgb(3,206,164);fill-rule:nonzero;stroke:rgb(3,206,164);stroke-width:1px;stroke-linecap:butt;stroke-linejoin:miter;stroke-miterlimit:4;"/>
        </g>
        <g transform="matrix(3.78757,0.144583,-0.144583,3.78757,-11493,-692.34)">
            <path d="M3454.3,235.579C3454.3,251.403 3441.28,264.424 3425.45,264.424C3409.63,264.424 3396.61,251.403 3396.61,235.579C3396.61,219.755 3409.63,206.734 3425.45,206.734C3441.28,206.734 3454.3,219.755 3454.3,235.579Z" style="fill:rgb(3,206,164);fill-rule:nonzero;"/>
        </g>
        <g transform="matrix(1.30929,0,0,1.30929,63.1326,-648.039)">
            <g transform="matrix(-3.82857e-16,1,-1,-3.82857e-16,0,0)">
                <path d="M993.912,-1101.26L1049.94,-1101.26C1053.23,-1101.26 1055.88,-1098.61 1055.88,-1095.32L1055.88,-1019.43C1055.88,-1016.14 1053.23,-1013.49 1049.94,-1013.49L993.912,-1013.49C990.622,-1013.49 987.974,-1016.14 987.974,-1019.43L987.974,-1095.32C987.974,-1098.61 990.622,-1101.26 993.912,-1101.26Z" style="fill:none;fill-rule:nonzero;stroke:white;stroke-width:5.1px;stroke-linecap:butt;stroke-linejoin:miter;stroke-miterlimit:4;"/>
            </g>
            <path d="M1040.74,1030.34L1024.91,1023.35L1024.91,1021.07L1040.74,1013.17L1040.74,1016.99L1029.84,1022.05L1040.74,1026.53L1040.74,1030.34ZM1063.95,1010.26L1055.27,1033.57L1050.85,1033.57L1059.54,1010.26L1063.95,1010.26ZM1074,1026.53L1084.9,1022.05L1074,1016.99L1074,1013.17L1089.83,1021.07L1089.83,1023.35L1074,1030.34L1074,1026.53Z" style="fill:white;fill-rule:nonzero;stroke:white;stroke-width:2.31px;stroke-miterlimit:4;"/>
            <g transform="matrix(-3.82857e-16,1,-1,-3.82857e-16,0,0)">
                <path d="M1053.01,-1107.89L1056.78,-1107.89C1057.21,-1107.89 1057.56,-1107.55 1057.56,-1107.12L1057.56,-1007.62C1057.56,-1007.19 1057.21,-1006.84 1056.78,-1006.84L1053.01,-1006.84C1052.58,-1006.84 1052.24,-1007.19 1052.24,-1007.62L1052.24,-1107.12C1052.24,-1107.55 1052.58,-1107.89 1053.01,-1107.89Z" style="fill:white;fill-rule:nonzero;stroke:white;stroke-width:3.9px;stroke-linecap:butt;stroke-linejoin:miter;stroke-miterlimit:4;"/>
            </g>
        </g>
        <g transform="matrix(1,0,0,1,910.93,-607.133)">
            <text x="448.234px" y="1525.15px" style="font-family:'ArialMT', 'Arial', sans-serif;font-size:50px;">•	<tspan x="523.234px " y="1525.15px ">C</tspan>oordinate your team</text>
            <text x="448.234px" y="1597.62px" style="font-family:'ArialMT', 'Arial', sans-serif;font-size:50px;">•	<tspan x="523.234px " y="1597.62px ">O</tspan>rganize your assets</text>
            <text x="448.234px" y="1670.09px" style="font-family:'ArialMT', 'Arial', sans-serif;font-size:50px;">•	<tspan x="523.234px " y="1670.09px ">E</tspan>nsure complete and F<tspan x="1037.42px 1070.77px " y="1670.09px 1670.09px ">AI</tspan>R</text>
            <text x="523.234px" y="1721.72px" style="font-family:'ArialMT', 'Arial', sans-serif;font-size:50px;">metadata</text>
            <text x="448.234px" y="1794.19px" style="font-family:'ArialMT', 'Arial', sans-serif;font-size:50px;">•	<tspan x="523.234px " y="1794.19px ">C</tspan>hoose infrastructure for</text>
            <text x="523.234px" y="1845.83px" style="font-family:'ArialMT', 'Arial', sans-serif;font-size:50px;">data access, data security<tspan x="1097.6px " y="1845.83px ">,</tspan></text>
            <text x="523.234px" y="1897.46px" style="font-family:'ArialMT', 'Arial', sans-serif;font-size:50px;">storage, and testing</text>
        </g>
        <g transform="matrix(1,0,0,1,-52.6406,-785.803)">
            <text x="1597.45px" y="1600.19px" style="font-family:'Arial-ItalicMT', 'Arial', sans-serif;font-style:italic;font-size:83.333px;fill:rgb(3,206,164);">Logistics</text>
        </g>
    </g>
    <g>
        <g transform="matrix(1,0,0,0.83442,-903.08,-649.212)">
            <path d="M2103.02,1498.16C2103.02,1436.21 2061.05,1385.91 2009.36,1385.91L1381.93,1385.91C1330.24,1385.91 1288.27,1436.21 1288.27,1498.16L1288.27,2347.1C1288.27,2409.05 1330.24,2459.34 1381.93,2459.34L2009.36,2459.34C2061.05,2459.34 2103.02,2409.05 2103.02,2347.1L2103.02,1498.16Z" style="fill:white;stroke:rgb(3,206,164);stroke-width:4.52px;"/>
        </g>
        <g transform="matrix(1,0,0,1,-30.1624,-629.733)">
            <text x="448.234px" y="1525.15px" style="font-family:'ArialMT', 'Arial', sans-serif;font-size:50px;">•	<tspan x="523.234px " y="1525.15px ">D</tspan>oes the material help achieve</text>
            <text x="523.234px" y="1576.78px" style="font-family:'ArialMT', 'Arial', sans-serif;font-size:50px;">the learning outcomes?</text>
            <text x="448.234px" y="1649.25px" style="font-family:'ArialMT', 'Arial', sans-serif;font-size:50px;">•	<tspan x="523.234px " y="1649.25px ">I</tspan>s the material engaging, with</text>
            <text x="523.234px" y="1700.89px" style="font-family:'ArialMT', 'Arial', sans-serif;font-size:50px;">diverse formats?</text>
            <text x="448.234px" y="1773.36px" style="font-family:'ArialMT', 'Arial', sans-serif;font-size:50px;">•	<tspan x="523.234px " y="1773.36px ">I</tspan>s there assessment built into</text>
            <text x="523.234px" y="1824.99px" style="font-family:'ArialMT', 'Arial', sans-serif;font-size:50px;">these materials?</text>
            <text x="448.234px" y="1897.46px" style="font-family:'ArialMT', 'Arial', sans-serif;font-size:50px;">•	<tspan x="523.234px " y="1897.46px ">I</tspan>s metadata and annotation</text>
            <text x="523.234px" y="1949.1px" style="font-family:'ArialMT', 'Arial', sans-serif;font-size:50px;">complete?</text>
        </g>
        <g transform="matrix(1,0,0,1,-943.792,-906.815)">
            <clipPath id="_clip2">
                <path d="M2143.73,1507.7C2143.73,1456.01 2101.76,1414.04 2050.07,1414.04L1422.64,1414.04C1370.95,1414.04 1328.98,1456.01 1328.98,1507.7L1328.98,2393.8C1328.98,2445.5 1370.95,2487.47 1422.64,2487.47L2050.07,2487.47C2101.76,2487.47 2143.73,2445.5 2143.73,2393.8L2143.73,1507.7Z"/>
            </clipPath>
            <g clip-path="url(#_clip2)">
                <circle cx="1301.43" cy="1400.97" r="266.843" style="fill:none;stroke:rgb(239,229,220);stroke-width:29.17px;"/>
            </g>
        </g>
        <g transform="matrix(4.16667,0,0,4.16667,-13665.2,-961.769)">
            <path d="M3454.02,389.367C3454.02,390.424 3453.78,391.383 3453.32,392.242C3452.86,393.101 3452.25,393.768 3451.49,394.242C3450.95,394.57 3450.36,394.807 3449.7,394.953C3449.05,395.099 3448.19,395.172 3447.12,395.172L3444.19,395.172L3444.19,383.539L3447.09,383.539C3448.23,383.539 3449.13,383.622 3449.8,383.789C3450.47,383.95 3451.04,384.174 3451.5,384.461C3452.29,384.955 3452.91,385.614 3453.35,386.437C3453.79,387.26 3454.02,388.237 3454.02,389.367L3454.02,389.367ZM3452.4,389.344C3452.4,388.433 3452.24,387.665 3451.92,387.04C3451.6,386.415 3451.13,385.922 3450.5,385.563C3450.04,385.303 3449.56,385.123 3449.04,385.024C3448.52,384.92 3447.91,384.868 3447.19,384.868L3445.74,384.868L3445.74,393.844L3447.19,393.844C3447.93,393.844 3448.58,393.79 3449.13,393.68C3449.69,393.571 3450.2,393.368 3450.66,393.071C3451.24,392.701 3451.68,392.214 3451.96,391.61C3452.25,391.006 3452.4,390.25 3452.4,389.344L3452.4,389.344ZM3463.7,390.961L3457.27,390.961C3457.27,391.498 3457.35,391.967 3457.51,392.368C3457.68,392.764 3457.9,393.089 3458.18,393.344C3458.45,393.594 3458.77,393.782 3459.14,393.907C3459.51,394.032 3459.93,394.094 3460.37,394.094C3460.97,394.094 3461.56,393.977 3462.16,393.743C3462.77,393.503 3463.2,393.269 3463.45,393.039L3463.53,393.039L3463.53,394.641C3463.03,394.849 3462.53,395.024 3462.01,395.164C3461.5,395.305 3460.96,395.375 3460.39,395.375C3458.94,395.375 3457.81,394.985 3457,394.203C3456.18,393.417 3455.78,392.302 3455.78,390.86C3455.78,389.433 3456.17,388.3 3456.94,387.461C3457.72,386.623 3458.75,386.203 3460.02,386.203C3461.2,386.203 3462.1,386.547 3462.74,387.235C3463.38,387.922 3463.7,388.899 3463.7,390.164L3463.7,390.961ZM3462.27,389.836C3462.27,389.066 3462.08,388.469 3461.69,388.047C3461.31,387.626 3460.73,387.415 3459.95,387.415C3459.16,387.415 3458.53,387.646 3458.06,388.11C3457.6,388.573 3457.34,389.149 3457.27,389.836L3462.27,389.836ZM3473.48,386.446L3469.95,395.172L3468.47,395.172L3464.96,386.446L3466.56,386.446L3469.26,393.391L3471.94,386.446L3473.48,386.446ZM3482.56,390.962L3476.13,390.962C3476.13,391.498 3476.21,391.967 3476.37,392.368C3476.53,392.764 3476.76,393.089 3477.04,393.344C3477.31,393.594 3477.63,393.782 3478,393.907C3478.37,394.032 3478.79,394.094 3479.23,394.094C3479.83,394.094 3480.42,393.977 3481.02,393.743C3481.63,393.503 3482.06,393.269 3482.31,393.04L3482.39,393.04L3482.39,394.641C3481.9,394.849 3481.39,395.024 3480.88,395.165C3480.36,395.305 3479.82,395.375 3479.25,395.375C3477.8,395.375 3476.67,394.985 3475.86,394.204C3475.05,393.417 3474.64,392.302 3474.64,390.86C3474.64,389.433 3475.03,388.3 3475.81,387.461C3476.59,386.623 3477.61,386.204 3478.88,386.204C3480.06,386.204 3480.97,386.547 3481.6,387.235C3482.24,387.922 3482.56,388.899 3482.56,390.164L3482.56,390.962ZM3481.13,389.837C3481.13,389.066 3480.94,388.469 3480.55,388.047C3480.17,387.626 3479.59,387.415 3478.81,387.415C3478.02,387.415 3477.39,387.646 3476.92,388.11C3476.46,388.574 3476.2,389.149 3476.13,389.837L3481.13,389.837ZM3486.27,395.172L3484.81,395.172L3484.81,383.016L3486.27,383.016L3486.27,395.172ZM3496.62,390.813C3496.62,392.235 3496.25,393.357 3495.52,394.18C3494.79,395.003 3493.82,395.415 3492.59,395.415C3491.36,395.415 3490.38,395.003 3489.65,394.18C3488.93,393.357 3488.56,392.235 3488.56,390.813C3488.56,389.391 3488.93,388.269 3489.65,387.446C3490.38,386.618 3491.36,386.204 3492.59,386.204C3493.82,386.204 3494.79,386.618 3495.52,387.446C3496.25,388.269 3496.62,389.391 3496.62,390.813ZM3495.1,390.813C3495.1,389.683 3494.88,388.844 3494.44,388.297C3493.99,387.745 3493.38,387.469 3492.59,387.469C3491.8,387.469 3491.18,387.745 3490.74,388.297C3490.3,388.844 3490.08,389.683 3490.08,390.813C3490.08,391.907 3490.3,392.738 3490.74,393.305C3491.18,393.868 3491.8,394.149 3492.59,394.149C3493.38,394.149 3493.99,393.87 3494.43,393.313C3494.88,392.751 3495.1,391.917 3495.1,390.813ZM3506.57,390.704C3506.57,391.412 3506.47,392.06 3506.27,392.649C3506.06,393.232 3505.78,393.727 3505.41,394.133C3505.06,394.519 3504.66,394.818 3504.19,395.032C3503.72,395.24 3503.23,395.344 3502.71,395.344C3502.26,395.344 3501.85,395.295 3501.48,395.196C3501.11,395.097 3500.74,394.943 3500.36,394.735L3500.36,398.391L3498.89,398.391L3498.89,386.446L3500.36,386.446L3500.36,387.36C3500.75,387.032 3501.19,386.758 3501.67,386.539C3502.16,386.316 3502.68,386.204 3503.24,386.204C3504.29,386.204 3505.1,386.602 3505.69,387.399C3506.28,388.191 3506.57,389.292 3506.57,390.703L3506.57,390.704ZM3505.06,390.743C3505.06,389.691 3504.88,388.904 3504.52,388.383C3504.16,387.863 3503.6,387.602 3502.86,387.602C3502.44,387.602 3502.01,387.693 3501.59,387.876C3501.16,388.058 3500.75,388.298 3500.36,388.594L3500.36,393.54C3500.78,393.727 3501.13,393.855 3501.43,393.923C3501.73,393.99 3502.07,394.024 3502.45,394.024C3503.27,394.024 3503.91,393.748 3504.37,393.196C3504.83,392.644 3505.06,391.826 3505.06,390.743L3505.06,390.743Z" style="fill:rgb(3,206,164);fill-rule:nonzero;stroke:rgb(3,206,164);stroke-width:1px;stroke-linecap:butt;stroke-linejoin:miter;stroke-miterlimit:4;"/>
        </g>
        <g transform="matrix(3.78757,0.144583,-0.144583,3.78757,-12392.7,-722.892)">
            <path d="M3454.3,235.579C3454.3,251.403 3441.28,264.424 3425.45,264.424C3409.63,264.424 3396.61,251.403 3396.61,235.579C3396.61,219.755 3409.63,206.734 3425.45,206.734C3441.28,206.734 3454.3,219.755 3454.3,235.579Z" style="fill:rgb(3,206,164);fill-rule:nonzero;"/>
        </g>
        <g transform="matrix(1.30929,0,0,1.30929,-836.595,-678.591)">
            <g transform="matrix(-3.82857e-16,1,-1,-3.82857e-16,0,0)">
                <path d="M993.912,-1101.26L1049.94,-1101.26C1053.23,-1101.26 1055.88,-1098.61 1055.88,-1095.32L1055.88,-1019.43C1055.88,-1016.14 1053.23,-1013.49 1049.94,-1013.49L993.912,-1013.49C990.622,-1013.49 987.974,-1016.14 987.974,-1019.43L987.974,-1095.32C987.974,-1098.61 990.622,-1101.26 993.912,-1101.26Z" style="fill:none;fill-rule:nonzero;stroke:white;stroke-width:5.1px;stroke-linecap:butt;stroke-linejoin:miter;stroke-miterlimit:4;"/>
            </g>
            <path d="M1040.74,1030.34L1024.91,1023.35L1024.91,1021.07L1040.74,1013.17L1040.74,1016.99L1029.84,1022.05L1040.74,1026.53L1040.74,1030.34ZM1063.95,1010.26L1055.27,1033.57L1050.85,1033.57L1059.54,1010.26L1063.95,1010.26ZM1074,1026.53L1084.9,1022.05L1074,1016.99L1074,1013.17L1089.83,1021.07L1089.83,1023.35L1074,1030.34L1074,1026.53Z" style="fill:white;fill-rule:nonzero;stroke:white;stroke-width:2.31px;stroke-miterlimit:4;"/>
            <g transform="matrix(-3.82857e-16,1,-1,-3.82857e-16,0,0)">
                <path d="M1053.01,-1107.89L1056.78,-1107.89C1057.21,-1107.89 1057.56,-1107.55 1057.56,-1107.12L1057.56,-1007.62C1057.56,-1007.19 1057.21,-1006.84 1056.78,-1006.84L1053.01,-1006.84C1052.58,-1006.84 1052.24,-1007.19 1052.24,-1007.62L1052.24,-1107.12C1052.24,-1107.55 1052.58,-1107.89 1053.01,-1107.89Z" style="fill:white;fill-rule:nonzero;stroke:white;stroke-width:3.9px;stroke-linecap:butt;stroke-linejoin:miter;stroke-miterlimit:4;"/>
            </g>
        </g>
        <g transform="matrix(1,0,0,1,-952.368,-816.355)">
            <text x="1597.45px" y="1600.19px" style="font-family:'Arial-ItalicMT', 'Arial', sans-serif;font-style:italic;font-size:83.333px;fill:rgb(3,206,164);">Pedagogics</text>
        </g>
    </g>
</svg>
