<?xml version="1.0" encoding="UTF-8"?>
<svg width="68.841mm" height="82.782mm" version="1.1" viewBox="0 0 68.841 82.782" xml:space="preserve" xmlns="http://www.w3.org/2000/svg"><g transform="translate(-459.82 -161.48)"><g fill="none" stroke="#ffffff" stroke-linecap="round" stroke-linejoin="round"><path d="m472.78 242.68h-10.579s-1.9342-21.071 0-33.443c0.35703-2.2837 2.6752-3.8808 4.5501-5.2326 4.5639-3.2904 15.584-6.4839 15.584-6.4839s0.53734-3.0586 0-4.4364c-0.46804-1.2-1.9278-1.7552-2.6163-2.8438-1.0402-1.6448-1.3124-3.6748-2.1877-5.413-0.54805-1.0883-1.548-1.9541-1.9074-3.1184-0.40901-1.3254-0.54972-2.812-0.20682-4.156 0.13056-0.51172 0.64818-0.85439 0.82721-1.3512 0.86468-2.3995-0.22024-5.3835 1.0859-7.5743 1.4019-2.3515 4.0367-3.9237 6.5976-4.8914 2.1002-0.79354 4.4936-0.91793 6.7114-0.56876 2.0762 0.32687 4.2303 1.0567 5.8152 2.4371 1.1156 0.97171 1.7389 2.4351 2.2612 3.8193 0.5663 1.5007 0.72383 3.1333 0.89504 4.7281 0.0901 0.83887-0.21509 1.7353 0.0678 2.5302 0.18331 0.51499 0.86361 0.7695 1.0017 1.2984 0.34646 1.3268-0.0935 2.7954-0.59955 4.0699-0.45296 1.1407-1.7187 1.8547-2.1085 3.0185-0.93677 2.7973-0.79138 2.824-2.2633 4.9392-1.0077 1.4481-1.1891 1.0491-1.6571 2.3938-0.53593 1.5398 0 4.8914 0 4.8914l8.769 5.0628" stroke-width="3"/><g transform="matrix(.75514 0 0 .75514 90.197 58.256)" stop-color="#000000" style="font-variation-settings:normal"><path d="m564.77 208.17v-16.891h-7.5613v16.891c-8.5671 1.5825-14.226 9.1993-14.239 18.098 7e-5 10.173 8.0679 18.419 18.02 18.42 9.9522-1.2e-4 18.02-8.2468 18.02-18.42-0.0132-8.8988-5.6723-16.516-14.239-18.098" stop-color="#000000" stroke-width="3.2643" style="font-variation-settings:normal"/><path d="m544.01 219.86h19.176" stop-color="#000000" stroke-width="2.4698" style="font-variation-settings:normal"/><path d="m577.86 219.73h-7.9627" stop-color="#000000" stroke-width="2.4698" style="font-variation-settings:normal"/></g><path d="m469.44 213.77h11.569" stop-color="#000000" stroke-width="1.865" style="-inkscape-stroke:none;font-variation-settings:normal"/><path d="m488.57 207.05v31.148" stop-color="#000000" stroke-width="1.865" style="-inkscape-stroke:none;font-variation-settings:normal"/></g></g></svg>
