<?xml version="1.0" encoding="UTF-8"?>
<svg width="87.028mm" height="82.7mm" version="1.1" viewBox="0 0 87.028 82.7" xml:space="preserve" xmlns="http://www.w3.org/2000/svg"><g transform="translate(-555.36 -26.235)"><g stroke="#fff" stroke-linecap="round" stroke-linejoin="round"><path d="m568.31 107.43h-10.579s-1.9342-21.071 0-33.443c0.35703-2.2837 2.6752-3.8808 4.5501-5.2326 4.5639-3.2904 15.584-6.4839 15.584-6.4839s0.53734-3.0586 0-4.4364c-0.46804-1.2-1.9278-1.7552-2.6163-2.8438-1.0402-1.6448-1.3124-3.6748-2.1877-5.413-0.54805-1.0883-1.548-1.9541-1.9074-3.1184-0.40901-1.3254-0.54972-2.812-0.20682-4.156 0.13056-0.51172 0.64818-0.85439 0.82721-1.3512 0.86468-2.3995-0.22024-5.3835 1.0859-7.5743 1.4019-2.3515 4.0367-3.9237 6.5976-4.8914 2.1002-0.79354 4.4936-0.91793 6.7114-0.56876 2.0762 0.32687 4.2303 1.0567 5.8152 2.4371 1.1156 0.97171 1.7389 2.4351 2.2612 3.8193 0.5663 1.5007 0.72383 3.1333 0.89504 4.7281 0.0901 0.83887-0.21509 1.7353 0.0678 2.5302 0.18331 0.51499 0.86361 0.7695 1.0017 1.2984 0.34646 1.3268-0.0935 2.7954-0.59955 4.0699-0.45296 1.1407-1.7187 1.8547-2.1085 3.0185-0.93677 2.7973-0.79138 2.824-2.2633 4.9392-1.0077 1.4481-1.1891 1.0491-1.6571 2.3938-0.53593 1.5398 0 4.8914 0 4.8914l8.769 5.0628" fill="none" stroke-width="3"/><path d="m564.98 78.524h11.569" fill="none" stop-color="#000000" stroke-width="1.865" style="-inkscape-stroke:none;font-variation-settings:normal"/><path d="m584.11 71.807v31.148" fill="none" stop-color="#000000" stroke-width="1.865" style="-inkscape-stroke:none;font-variation-settings:normal"/><g transform="translate(0 -1.4614)"><path d="m599.6 73.844h39.77c1.1722 0 2.1158 0.94366 2.1158 2.1158v29.959c0 1.1722-0.94366 2.1158-2.1158 2.1158h-39.77c-1.1722 0-2.1158-0.94366-2.1158-2.1158v-29.959c0-1.1722 0.94366-2.1158 2.1158-2.1158z" fill="none" stroke-width="1.8"/><path d="m610.76 69.408v6.7934" fill="none" stop-color="#000000" stroke-width="1.3148" style="-inkscape-stroke:none;font-variation-settings:normal"/><path d="m630.6 69.408v6.7934" fill="none" stop-color="#000000" stroke-width="1.3148" style="-inkscape-stroke:none;font-variation-settings:normal"/><path d="m640.98 82.405h-42.988" fill="none" stop-color="#000000" stroke-width="1.8" style="font-variation-settings:normal"/><rect x="612.92" y="87.881" width="4.298" height="2.4018" ry="1.2009" fill="#fff" style="font-variation-settings:normal"/><rect x="622.23" y="87.881" width="4.298" height="2.4018" ry="1.2009" fill="#fff" style="font-variation-settings:normal"/><rect x="631.54" y="87.881" width="4.298" height="2.4018" ry="1.2009" fill="#fff" style="font-variation-settings:normal"/><rect x="603.61" y="94.922" width="4.298" height="2.4018" ry="1.2009" fill="#fff" style="font-variation-settings:normal"/><rect x="612.92" y="94.922" width="4.298" height="2.4018" ry="1.2009" fill="#fff" style="font-variation-settings:normal"/><rect x="622.23" y="94.922" width="4.298" height="2.4018" ry="1.2009" fill="#fff" style="font-variation-settings:normal"/><rect x="631.54" y="94.922" width="4.298" height="2.4018" ry="1.2009" fill="#fff" style="font-variation-settings:normal"/><rect x="603.61" y="101.96" width="4.298" height="2.4018" ry="1.2009" fill="#fff" style="font-variation-settings:normal"/><rect x="612.92" y="101.96" width="4.298" height="2.4018" ry="1.2009" fill="#fff" style="font-variation-settings:normal"/><rect x="622.23" y="101.96" width="4.298" height="2.4018" ry="1.2009" fill="#fff" style="font-variation-settings:normal"/><rect x="631.54" y="101.96" width="4.298" height="2.4018" ry="1.2009" fill="#fff" style="font-variation-settings:normal"/></g></g></g></svg>
