<?xml version="1.0" encoding="UTF-8" standalone="no"?>
<!-- Created with Inkscape (http://www.inkscape.org/) -->

<svg
   width="125.24726mm"
   height="85.16066mm"
   viewBox="0 0 125.24726 85.16066"
   version="1.1"
   id="svg1"
   xml:space="preserve"
   inkscape:version="1.3 (0e150ed6c4, 2023-07-21)"
   sodipodi:docname="Biohackathon_2023_Barcelona.svg"
   xmlns:inkscape="http://www.inkscape.org/namespaces/inkscape"
   xmlns:sodipodi="http://sodipodi.sourceforge.net/DTD/sodipodi-0.dtd"
   xmlns="http://www.w3.org/2000/svg"
   xmlns:svg="http://www.w3.org/2000/svg"><sodipodi:namedview
     id="namedview1"
     pagecolor="#ffffff"
     bordercolor="#666666"
     borderopacity="1.0"
     inkscape:showpageshadow="2"
     inkscape:pageopacity="0.0"
     inkscape:pagecheckerboard="0"
     inkscape:deskcolor="#d1d1d1"
     inkscape:document-units="mm"
     inkscape:zoom="1.5880222"
     inkscape:cx="4420.5931"
     inkscape:cy="407.73989"
     inkscape:window-width="1920"
     inkscape:window-height="1009"
     inkscape:window-x="-8"
     inkscape:window-y="-8"
     inkscape:window-maximized="1"
     inkscape:current-layer="g236"
     showgrid="false"
     showguides="true"><inkscape:page
       x="5.6058309e-07"
       y="2.2606612e-06"
       width="125.24726"
       height="85.16066"
       id="page1"
       margin="0"
       bleed="0" /></sodipodi:namedview><defs
     id="defs1"><marker
       style="overflow:visible"
       id="RoundedArrow"
       refX="0"
       refY="0"
       orient="auto-start-reverse"
       inkscape:stockid="Rounded arrow"
       markerWidth="0.5"
       markerHeight="0.5"
       viewBox="0 0 1 1"
       inkscape:isstock="true"
       inkscape:collect="always"
       preserveAspectRatio="xMidYMid"><path
         transform="scale(0.7)"
         d="m -0.21114562,-4.1055728 6.42229122,3.21114561 a 1,1 90 0 1 0,1.78885438 L -0.21114562,4.1055728 A 1.236068,1.236068 31.717474 0 1 -2,3 v -6 a 1.236068,1.236068 148.28253 0 1 1.78885438,-1.1055728 z"
         style="fill:context-stroke;fill-rule:evenodd;stroke:none"
         id="path67" /></marker></defs><g
     inkscape:label="Layer 1"
     inkscape:groupmode="layer"
     id="layer1"
     transform="translate(-1140.6812,-55.513232)"><g
       id="g236"
       inkscape:export-filename="training_lifecycle.svg"
       inkscape:export-xdpi="96"
       inkscape:export-ydpi="96"><g
         id="g321"><path
           id="path205"
           style="opacity:0.500971;fill:none;stroke:#efe5dc;stroke-width:1.11704;stroke-linecap:round;stroke-linejoin:round"
           transform="rotate(2.1860685)"
           d="m 1236.8645,48.489899 a 30.457867,30.457867 0 0 1 -30.4579,30.457866 30.457867,30.457867 0 0 1 -30.4579,-30.457866 30.457867,30.457867 0 0 1 30.4579,-30.457867 30.457867,30.457867 0 0 1 30.4579,30.457867 z" /><path
           style="font-size:5.64444px;line-height:0;font-family:Visage;-inkscape-font-specification:Visage;text-align:center;text-anchor:middle;fill:#005472;stroke:#005472;stroke-width:0.265"
           d="m 1236.7183,73.377787 q 0,0.272851 -0.096,0.507118 -0.094,0.23151 -0.2646,0.402387 -0.2122,0.212217 -0.5016,0.319704 -0.2894,0.104731 -0.7304,0.104731 h -0.5457 v 1.529621 h -0.5457 v -4.103794 h 1.1135 q 0.3693,0 0.6256,0.06339 0.2563,0.06063 0.4547,0.192926 0.2343,0.157096 0.3611,0.391362 0.1295,0.234266 0.1295,0.592556 z m -0.5677,0.01378 q 0,-0.212217 -0.074,-0.369314 -0.074,-0.157096 -0.226,-0.256314 -0.1323,-0.08544 -0.3032,-0.121268 -0.1681,-0.03858 -0.4272,-0.03858 h -0.5402 v 1.639864 h 0.4603 q 0.3307,0 0.5374,-0.05788 0.2067,-0.06063 0.3362,-0.190169 0.1296,-0.132292 0.1819,-0.278364 0.055,-0.146072 0.055,-0.327973 z m 1.7694,2.849781 h -0.5182 v -4.288451 h 0.5182 z m 3.4175,0 h -0.5154 v -0.327973 q -0.069,0.04685 -0.1874,0.132292 -0.1158,0.08268 -0.226,0.132292 -0.1295,0.06339 -0.2977,0.10473 -0.1681,0.0441 -0.3941,0.0441 -0.4161,0 -0.7055,-0.275608 -0.2894,-0.275607 -0.2894,-0.702799 0,-0.350021 0.1488,-0.564995 0.1516,-0.21773 0.43,-0.341753 0.2811,-0.124024 0.6752,-0.168121 0.3941,-0.0441 0.8461,-0.06615 v -0.07993 q 0,-0.176388 -0.063,-0.292144 -0.061,-0.115755 -0.1764,-0.181901 -0.1102,-0.06339 -0.2645,-0.08544 -0.1544,-0.02205 -0.3225,-0.02205 -0.204,0 -0.4548,0.05512 -0.2508,0.05237 -0.5181,0.15434 h -0.028 v -0.52641 q 0.1516,-0.04134 0.4383,-0.09095 0.2866,-0.04961 0.5649,-0.04961 0.3253,0 0.565,0.05512 0.2426,0.05236 0.419,0.181901 0.1736,0.126779 0.2645,0.327972 0.091,0.201194 0.091,0.49885 z m -0.5154,-0.75792 v -0.857139 q -0.237,0.01378 -0.5595,0.04134 -0.3197,0.02756 -0.5071,0.07993 -0.2232,0.06339 -0.361,0.198437 -0.1378,0.132292 -0.1378,0.366558 0,0.264583 0.1598,0.399631 0.1599,0.132292 0.4878,0.132292 0.2729,0 0.4989,-0.104731 0.226,-0.107487 0.4189,-0.256315 z m 4.0873,0.75792 h -0.5182 v -1.752863 q 0,-0.212218 -0.025,-0.396875 -0.025,-0.187413 -0.091,-0.292144 -0.069,-0.115755 -0.1985,-0.170876 -0.1295,-0.05788 -0.3362,-0.05788 -0.2122,0 -0.4437,0.104731 -0.2315,0.104731 -0.4438,0.267339 v 2.298566 h -0.5181 v -3.078535 h 0.5181 v 0.341753 q 0.2426,-0.201193 0.5016,-0.314192 0.2591,-0.112999 0.532,-0.112999 0.4988,0 0.7606,0.300412 0.2619,0.300412 0.2619,0.865407 z"
           id="text206"
           aria-label="Plan" /><path
           style="font-size:5.64444px;line-height:0;font-family:Visage;-inkscape-font-specification:Visage;text-align:center;text-anchor:middle;fill:#f47d20;stroke:#f47d20;stroke-width:0.265"
           d="m 1251.0123,113.0522 q 0,0.55949 -0.2453,1.01424 -0.2426,0.45475 -0.6477,0.70556 -0.2811,0.17363 -0.6284,0.2508 -0.3445,0.0772 -0.9095,0.0772 h -1.0363 v -4.1038 h 1.0253 q 0.6008,0 0.9536,0.0882 0.3555,0.0854 0.6008,0.23702 0.4189,0.26183 0.6532,0.69729 0.2343,0.43546 0.2343,1.03352 z m -0.5705,-0.008 q 0,-0.48232 -0.1682,-0.81305 -0.1681,-0.33072 -0.5016,-0.52089 -0.2425,-0.13781 -0.5154,-0.19017 -0.2728,-0.0551 -0.6531,-0.0551 h -0.5127 v 3.16673 h 0.5127 q 0.3941,0 0.6862,-0.0579 0.2949,-0.0579 0.5402,-0.21498 0.3059,-0.19568 0.4575,-0.51538 0.1544,-0.31971 0.1544,-0.79926 z m 3.988,0.5705 h -2.2682 q 0,0.28388 0.085,0.4961 0.085,0.20946 0.2343,0.34451 0.1433,0.13229 0.339,0.19843 0.1984,0.0661 0.4354,0.0661 0.3142,0 0.6312,-0.12402 0.3197,-0.12678 0.4547,-0.24805 h 0.028 v 0.56499 q -0.2619,0.11025 -0.5347,0.18466 -0.2729,0.0744 -0.5733,0.0744 -0.7662,0 -1.1961,-0.41342 -0.43,-0.41616 -0.43,-1.1796 0,-0.75516 0.4107,-1.19889 0.4134,-0.44373 1.0859,-0.44373 0.6229,0 0.9591,0.36381 0.339,0.3638 0.339,1.03352 z m -0.5044,-0.39687 q 0,-0.4079 -0.2067,-0.63114 -0.2012,-0.22324 -0.6146,-0.22324 -0.4161,0 -0.6642,0.24529 -0.2453,0.24529 -0.2783,0.60909 z m 3.4892,0.99494 q 0,0.42168 -0.35,0.69178 -0.3473,0.27009 -0.9508,0.27009 -0.3418,0 -0.6284,-0.0799 -0.2839,-0.0827 -0.4768,-0.17915 v -0.58153 h 0.028 q 0.2453,0.18466 0.5457,0.2949 0.3005,0.10749 0.5761,0.10749 0.3417,0 0.5346,-0.11025 0.193,-0.11024 0.193,-0.34726 0,-0.1819 -0.1048,-0.27561 -0.1047,-0.0937 -0.4024,-0.15985 -0.1102,-0.0248 -0.2893,-0.0579 -0.1764,-0.0331 -0.3225,-0.0717 -0.4051,-0.10748 -0.576,-0.31419 -0.1681,-0.20946 -0.1681,-0.51263 0,-0.19017 0.077,-0.35829 0.08,-0.16812 0.2398,-0.30041 0.1543,-0.12954 0.3914,-0.20395 0.2397,-0.0772 0.5346,-0.0772 0.2757,0 0.5568,0.0689 0.2838,0.0662 0.4713,0.16261 v 0.55397 h -0.028 q -0.1984,-0.14607 -0.4823,-0.24529 -0.2839,-0.10198 -0.5567,-0.10198 -0.2839,0 -0.4796,0.11025 -0.1957,0.10748 -0.1957,0.32246 0,0.19017 0.1185,0.28663 0.1158,0.0965 0.3749,0.1571 0.1433,0.0331 0.3197,0.0661 0.1791,0.0331 0.2976,0.0606 0.3611,0.0827 0.5567,0.28387 0.1957,0.20395 0.1957,0.54019 z m 1.2981,-2.70646 h -0.5842 v -0.53744 h 0.5842 z m -0.033,3.59392 h -0.5182 v -3.07854 h 0.5182 z m 3.5222,-0.35002 q 0,0.78272 -0.3555,1.14928 -0.3555,0.36656 -1.0942,0.36656 -0.2453,0 -0.4795,-0.0358 -0.2315,-0.0331 -0.4575,-0.0965 v -0.52917 h 0.027 q 0.1268,0.0496 0.4024,0.12127 0.2756,0.0744 0.5512,0.0744 0.2646,0 0.4382,-0.0634 0.1737,-0.0634 0.2701,-0.17639 0.097,-0.10748 0.1378,-0.25907 0.041,-0.15158 0.041,-0.339 v -0.28112 q -0.2343,0.18742 -0.4493,0.28112 -0.2122,0.091 -0.5429,0.091 -0.5512,0 -0.8764,-0.39687 -0.3225,-0.39963 -0.3225,-1.12448 0,-0.39687 0.1103,-0.6835 0.113,-0.28939 0.3059,-0.49885 0.1791,-0.19569 0.4354,-0.30317 0.2564,-0.11025 0.5099,-0.11025 0.2673,0 0.4465,0.0551 0.1819,0.0524 0.3831,0.1626 l 0.033,-0.13229 h 0.485 z m -0.5181,-0.4961 v -1.67845 q -0.2067,-0.0937 -0.3859,-0.13229 -0.1764,-0.0413 -0.3527,-0.0413 -0.4272,0 -0.6725,0.28663 -0.2453,0.28663 -0.2453,0.83234 0,0.51814 0.1819,0.78548 0.1819,0.26734 0.6036,0.26734 0.226,0 0.452,-0.0854 0.2287,-0.0882 0.4189,-0.23427 z m 4.1121,0.84612 h -0.5182 v -1.75287 q 0,-0.21221 -0.025,-0.39687 -0.025,-0.18741 -0.091,-0.29214 -0.069,-0.11576 -0.1985,-0.17088 -0.1295,-0.0579 -0.3362,-0.0579 -0.2122,0 -0.4438,0.10473 -0.2315,0.10473 -0.4437,0.26734 v 2.29857 h -0.5181 v -3.07854 h 0.5181 v 0.34176 q 0.2426,-0.2012 0.5016,-0.3142 0.2591,-0.113 0.5319,-0.113 0.4989,0 0.7607,0.30042 0.2619,0.30041 0.2619,0.8654 z"
           id="text207"
           aria-label="Design" /><path
           style="font-size:5.64444px;line-height:0;font-family:Visage;-inkscape-font-specification:Visage;text-align:center;text-anchor:middle;fill:#03cea4;stroke:#03cea4;stroke-width:0.265"
           d="m 1218.4622,137.35789 q 0,0.55948 -0.2452,1.01424 -0.2426,0.45475 -0.6477,0.70555 -0.2811,0.17363 -0.6284,0.2508 -0.3445,0.0772 -0.9095,0.0772 h -1.0363 v -4.10379 h 1.0253 q 0.6008,0 0.9536,0.0882 0.3555,0.0854 0.6008,0.23703 0.4189,0.26182 0.6532,0.69728 0.2342,0.43546 0.2342,1.03353 z m -0.5705,-0.008 q 0,-0.48231 -0.1681,-0.81304 -0.1681,-0.33073 -0.5016,-0.5209 -0.2425,-0.1378 -0.5154,-0.19017 -0.2728,-0.0551 -0.6532,-0.0551 h -0.5126 v 3.16673 h 0.5126 q 0.3942,0 0.6863,-0.0579 0.2949,-0.0579 0.5402,-0.21497 0.3059,-0.19568 0.4575,-0.51538 0.1543,-0.31971 0.1543,-0.79927 z m 3.9881,0.57051 h -2.2683 q 0,0.28388 0.085,0.49609 0.085,0.20947 0.2342,0.34451 0.1433,0.1323 0.339,0.19844 0.1985,0.0661 0.4355,0.0661 0.3142,0 0.6311,-0.12403 0.3197,-0.12678 0.4548,-0.24804 h 0.027 v 0.56499 q -0.2618,0.11024 -0.5346,0.18466 -0.2729,0.0744 -0.5733,0.0744 -0.7662,0 -1.1961,-0.41341 -0.43,-0.41617 -0.43,-1.1796 0,-0.75516 0.4107,-1.19889 0.4134,-0.44373 1.0859,-0.44373 0.6228,0 0.9591,0.3638 0.339,0.36381 0.339,1.03353 z m -0.5044,-0.39687 q 0,-0.4079 -0.2067,-0.63114 -0.2012,-0.22325 -0.6146,-0.22325 -0.4162,0 -0.6642,0.24529 -0.2453,0.24529 -0.2784,0.6091 z m 3.9522,-1.19614 -1.2457,3.07853 h -0.5209 l -1.2375,-3.07853 h 0.5622 l 0.9536,2.45015 0.9454,-2.45015 z m 3.2053,1.59301 h -2.2682 q 0,0.28388 0.085,0.49609 0.085,0.20947 0.2343,0.34451 0.1433,0.1323 0.339,0.19844 0.1984,0.0661 0.4355,0.0661 0.3141,0 0.6311,-0.12403 0.3197,-0.12678 0.4547,-0.24804 h 0.028 v 0.56499 q -0.2618,0.11024 -0.5347,0.18466 -0.2728,0.0744 -0.5732,0.0744 -0.7662,0 -1.1962,-0.41341 -0.4299,-0.41617 -0.4299,-1.1796 0,-0.75516 0.4106,-1.19889 0.4134,-0.44373 1.0859,-0.44373 0.6229,0 0.9591,0.3638 0.339,0.36381 0.339,1.03353 z m -0.5043,-0.39687 q 0,-0.4079 -0.2067,-0.63114 -0.2012,-0.22325 -0.6146,-0.22325 -0.4162,0 -0.6642,0.24529 -0.2453,0.24529 -0.2784,0.6091 z m 1.8135,1.88239 h -0.5182 v -4.28845 h 0.5182 z m 3.649,-1.53788 q 0,0.7524 -0.3858,1.18786 -0.3859,0.43546 -1.0336,0.43546 -0.6532,0 -1.039,-0.43546 -0.3831,-0.43546 -0.3831,-1.18786 0,-0.75241 0.3831,-1.18787 0.3858,-0.43822 1.039,-0.43822 0.6477,0 1.0336,0.43822 0.3858,0.43546 0.3858,1.18787 z m -0.5347,0 q 0,-0.59807 -0.2342,-0.88746 -0.2343,-0.29214 -0.6505,-0.29214 -0.4216,0 -0.6559,0.29214 -0.2315,0.28939 -0.2315,0.88746 0,0.57877 0.2342,0.87918 0.2343,0.29766 0.6532,0.29766 0.4134,0 0.6477,-0.2949 0.237,-0.29766 0.237,-0.88194 z m 4.046,-0.0386 q 0,0.37483 -0.1075,0.68626 -0.1075,0.30868 -0.3032,0.52366 -0.1819,0.20395 -0.4299,0.31695 -0.2453,0.11024 -0.5209,0.11024 -0.2398,0 -0.4355,-0.0524 -0.1929,-0.0524 -0.3941,-0.16261 v 1.28985 h -0.5182 v -4.21404 h 0.5182 v 0.32246 q 0.2067,-0.17363 0.463,-0.28939 0.2591,-0.11851 0.5512,-0.11851 0.5567,0 0.8654,0.42168 0.3115,0.41892 0.3115,1.16582 z m -0.5347,0.0138 q 0,-0.55673 -0.1902,-0.83233 -0.1902,-0.27561 -0.5843,-0.27561 -0.2232,0 -0.4492,0.0965 -0.226,0.0965 -0.4327,0.25356 v 1.7446 q 0.2205,0.0992 0.3776,0.13504 0.1598,0.0358 0.361,0.0358 0.4327,0 0.6752,-0.29214 0.2426,-0.29215 0.2426,-0.86541 z"
           id="text208"
           aria-label="Develop" /><path
           style="font-size:5.64444px;line-height:0;font-family:Visage;-inkscape-font-specification:Visage;text-align:center;text-anchor:middle;fill:#4f1c46;fill-opacity:1;stroke:#4f1c46;stroke-width:0.265;stroke-opacity:1"
           d="m 1144.2807,121.04248 q 0,0.55949 -0.2453,1.01424 -0.2425,0.45475 -0.6477,0.70556 -0.2811,0.17363 -0.6283,0.2508 -0.3446,0.0772 -0.9096,0.0772 h -1.0362 v -4.1038 h 1.0252 q 0.6008,0 0.9536,0.0882 0.3556,0.0854 0.6009,0.23702 0.4189,0.26183 0.6531,0.69729 0.2343,0.43546 0.2343,1.03352 z m -0.5705,-0.008 q 0,-0.48232 -0.1681,-0.81305 -0.1681,-0.33072 -0.5016,-0.52089 -0.2426,-0.13781 -0.5154,-0.19017 -0.2729,-0.0551 -0.6532,-0.0551 h -0.5126 v 3.16673 h 0.5126 q 0.3941,0 0.6863,-0.0579 0.2949,-0.0579 0.5402,-0.21498 0.3059,-0.19568 0.4575,-0.51538 0.1543,-0.31971 0.1543,-0.79926 z m 3.988,0.5705 h -2.2682 q 0,0.28388 0.085,0.4961 0.085,0.20946 0.2343,0.34451 0.1433,0.13229 0.339,0.19843 0.1984,0.0661 0.4355,0.0661 0.3141,0 0.6311,-0.12402 0.3197,-0.12678 0.4547,-0.24805 h 0.028 v 0.565 q -0.2618,0.11024 -0.5347,0.18465 -0.2728,0.0744 -0.5732,0.0744 -0.7662,0 -1.1962,-0.41342 -0.4299,-0.41616 -0.4299,-1.17959 0,-0.75517 0.4106,-1.1989 0.4134,-0.44373 1.0859,-0.44373 0.6229,0 0.9591,0.36381 0.339,0.3638 0.339,1.03352 z m -0.5043,-0.39687 q 0,-0.4079 -0.2067,-0.63114 -0.2012,-0.22324 -0.6146,-0.22324 -0.4162,0 -0.6642,0.24529 -0.2453,0.24529 -0.2784,0.60909 z m 1.8135,1.8824 h -0.5182 v -4.28845 h 0.5182 z m 1.582,-3.59392 h -0.5843 v -0.53744 h 0.5843 z m -0.033,3.59392 h -0.5182 v -3.07854 h 0.5182 z m 3.6876,-3.07854 -1.2457,3.07854 h -0.5209 l -1.2375,-3.07854 h 0.5622 l 0.9536,2.45015 0.9454,-2.45015 z m 3.2053,1.59301 h -2.2682 q 0,0.28388 0.085,0.4961 0.085,0.20946 0.2343,0.34451 0.1433,0.13229 0.339,0.19843 0.1984,0.0661 0.4354,0.0661 0.3142,0 0.6312,-0.12402 0.3197,-0.12678 0.4547,-0.24805 h 0.028 v 0.565 q -0.2618,0.11024 -0.5347,0.18465 -0.2728,0.0744 -0.5732,0.0744 -0.7662,0 -1.1962,-0.41342 -0.4299,-0.41616 -0.4299,-1.17959 0,-0.75517 0.4106,-1.1989 0.4134,-0.44373 1.0859,-0.44373 0.6229,0 0.9591,0.36381 0.339,0.3638 0.339,1.03352 z m -0.5043,-0.39687 q 0,-0.4079 -0.2067,-0.63114 -0.2012,-0.22324 -0.6146,-0.22324 -0.4162,0 -0.6643,0.24529 -0.2452,0.24529 -0.2783,0.60909 z m 3.2108,-0.63114 h -0.028 q -0.1157,-0.0276 -0.226,-0.0386 -0.1075,-0.0138 -0.2563,-0.0138 -0.2398,0 -0.463,0.10749 -0.2232,0.10473 -0.4299,0.27285 v 2.18557 h -0.5182 v -3.07854 h 0.5182 v 0.45476 q 0.3086,-0.24805 0.5429,-0.35003 0.237,-0.10473 0.4823,-0.10473 0.1351,0 0.1957,0.008 0.061,0.006 0.1819,0.0248 z"
           id="text209"
           aria-label="Deliver" /><path
           style="font-size:5.64444px;line-height:0;font-family:Visage;-inkscape-font-specification:Visage;text-align:center;text-anchor:middle;fill:#cc1e58;stroke:#ca1551;stroke-width:0.265"
           d="m 1151.1665,76.48716 h -2.7037 v -4.103795 h 2.7037 v 0.485069 h -2.158 v 1.124478 h 2.158 v 0.48507 h -2.158 v 1.524109 h 2.158 z m 3.4864,-3.078535 -1.2457,3.078535 h -0.5209 l -1.2375,-3.078535 h 0.5622 l 0.9536,2.45015 0.9454,-2.45015 z m 2.96,3.078535 h -0.5154 v -0.327973 q -0.069,0.04685 -0.1874,0.132291 -0.1157,0.08268 -0.226,0.132292 -0.1295,0.06339 -0.2976,0.104731 -0.1681,0.0441 -0.3941,0.0441 -0.4162,0 -0.7056,-0.275607 -0.2894,-0.275608 -0.2894,-0.702799 0,-0.350022 0.1488,-0.564996 0.1516,-0.217729 0.43,-0.341753 0.2811,-0.124023 0.6752,-0.16812 0.3941,-0.0441 0.8461,-0.06615 v -0.07993 q 0,-0.176389 -0.063,-0.292144 -0.061,-0.115755 -0.1764,-0.181901 -0.1103,-0.06339 -0.2646,-0.08544 -0.1544,-0.02205 -0.3225,-0.02205 -0.2039,0 -0.4547,0.05512 -0.2508,0.05237 -0.5182,0.15434 h -0.028 v -0.52641 q 0.1515,-0.04134 0.4382,-0.09095 0.2866,-0.04961 0.565,-0.04961 0.3252,0 0.565,0.05512 0.2425,0.05237 0.4189,0.181901 0.1736,0.12678 0.2646,0.327973 0.091,0.201193 0.091,0.498849 z m -0.5154,-0.757921 V 74.8721 q -0.237,0.01378 -0.5594,0.04134 -0.3197,0.02756 -0.5072,0.07993 -0.2232,0.06339 -0.361,0.198438 -0.1378,0.132291 -0.1378,0.366558 0,0.264583 0.1598,0.39963 0.1599,0.132292 0.4879,0.132292 0.2728,0 0.4988,-0.104731 0.226,-0.107487 0.4189,-0.256315 z m 2.0368,0.757921 h -0.5182 v -4.288452 h 0.5182 z m 3.5774,0 h -0.5182 v -0.341753 q -0.2618,0.206705 -0.5016,0.316948 -0.2398,0.110243 -0.5291,0.110243 -0.4851,0 -0.7552,-0.2949 -0.2701,-0.297656 -0.2701,-0.870919 v -1.998154 h 0.5181 v 1.752863 q 0,0.234266 0.022,0.402387 0.022,0.165364 0.094,0.283875 0.074,0.121268 0.1929,0.176389 0.1185,0.05512 0.3445,0.05512 0.2012,0 0.4382,-0.104731 0.2398,-0.104731 0.4465,-0.267339 v -2.298566 h 0.5182 z m 3.412,0 h -0.5154 v -0.327973 q -0.069,0.04685 -0.1874,0.132291 -0.1158,0.08268 -0.226,0.132292 -0.1295,0.06339 -0.2977,0.104731 -0.1681,0.0441 -0.3941,0.0441 -0.4162,0 -0.7055,-0.275607 -0.2894,-0.275608 -0.2894,-0.702799 0,-0.350022 0.1488,-0.564996 0.1516,-0.217729 0.4299,-0.341753 0.2812,-0.124023 0.6753,-0.16812 0.3941,-0.0441 0.8461,-0.06615 v -0.07993 q 0,-0.176389 -0.063,-0.292144 -0.061,-0.115755 -0.1764,-0.181901 -0.1102,-0.06339 -0.2646,-0.08544 -0.1543,-0.02205 -0.3224,-0.02205 -0.204,0 -0.4548,0.05512 -0.2508,0.05237 -0.5181,0.15434 h -0.028 v -0.52641 q 0.1516,-0.04134 0.4382,-0.09095 0.2867,-0.04961 0.565,-0.04961 0.3252,0 0.565,0.05512 0.2426,0.05237 0.419,0.181901 0.1736,0.12678 0.2645,0.327973 0.091,0.201193 0.091,0.498849 z m -0.5154,-0.757921 V 74.8721 q -0.237,0.01378 -0.5595,0.04134 -0.3197,0.02756 -0.5071,0.07993 -0.2232,0.06339 -0.361,0.198438 -0.1379,0.132291 -0.1379,0.366558 0,0.264583 0.1599,0.39963 0.1599,0.132292 0.4878,0.132292 0.2729,0 0.4989,-0.104731 0.226,-0.107487 0.4189,-0.256315 z m 3.1116,0.73036 q -0.1461,0.03858 -0.3197,0.06339 -0.1709,0.0248 -0.3059,0.0248 -0.4713,0 -0.7166,-0.253558 -0.2453,-0.253559 -0.2453,-0.813042 V 73.84408 h -0.35 v -0.435459 h 0.35 v -0.8847 h 0.5182 v 0.8847 h 1.0693 v 0.435459 h -1.0693 v 1.402842 q 0,0.242535 0.011,0.380339 0.011,0.135047 0.077,0.253558 0.061,0.110243 0.1654,0.162609 0.1075,0.04961 0.3252,0.04961 0.1268,0 0.2646,-0.03583 0.1378,-0.03859 0.1984,-0.06339 h 0.028 z m 3.2026,-1.457963 h -2.2683 q 0,0.283875 0.086,0.496093 0.085,0.209462 0.2342,0.344509 0.1433,0.132292 0.339,0.198438 0.1985,0.06614 0.4355,0.06614 0.3142,0 0.6311,-0.124023 0.3197,-0.126779 0.4548,-0.248047 h 0.027 v 0.564996 q -0.2618,0.110243 -0.5346,0.184657 -0.2729,0.07441 -0.5733,0.07441 -0.7662,0 -1.1961,-0.413411 -0.43,-0.416168 -0.43,-1.1796 0,-0.755165 0.4107,-1.198893 0.4134,-0.443728 1.0859,-0.443728 0.6228,0 0.9591,0.363802 0.339,0.363802 0.339,1.033528 z m -0.5044,-0.396875 q 0,-0.407899 -0.2067,-0.631141 -0.2012,-0.223242 -0.6146,-0.223242 -0.4162,0 -0.6642,0.245291 -0.2453,0.24529 -0.2784,0.609092 z"
           id="text210"
           aria-label="Evaluate" /><path
           id="ellipse129"
           style="fill:#f47d20;stroke:#ffffff;stroke-width:0.593422;stroke-linecap:round;stroke-linejoin:round"
           transform="rotate(2.1860685)"
           d="m 1250.2157,57.607746 a 10.17618,10.176183 0 0 1 -10.1761,10.176183 10.17618,10.176183 0 0 1 -10.1762,-10.176183 10.17618,10.176183 0 0 1 10.1762,-10.176183 10.17618,10.176183 0 0 1 10.1761,10.176183 z" /><path
           id="ellipse130"
           style="fill:#03cea4;stroke:#ffffff;stroke-width:0.593422;stroke-linecap:round;stroke-linejoin:round"
           transform="rotate(2.1860685)"
           d="m 1218.6154,83.107086 a 10.17618,10.176183 0 0 1 -10.1762,10.176183 10.17618,10.176183 0 0 1 -10.1762,-10.176183 10.17618,10.176183 0 0 1 10.1762,-10.176183 10.17618,10.176183 0 0 1 10.1762,10.176183 z" /><path
           id="ellipse131"
           style="fill:#4f1c46;fill-opacity:1;stroke:#ffffff;stroke-width:0.593422;stroke-linecap:round;stroke-linejoin:round"
           transform="rotate(2.1860685)"
           d="m 1184.3889,68.080772 a 10.17618,10.176183 0 0 1 -10.1761,10.176183 10.17618,10.176183 0 0 1 -10.1762,-10.176183 10.17618,10.176183 0 0 1 10.1762,-10.176182 10.17618,10.176183 0 0 1 10.1761,10.176182 z" /><path
           id="ellipse132"
           style="fill:#ca1551;stroke:#ffffff;stroke-width:0.593422;stroke-linecap:round;stroke-linejoin:round"
           transform="rotate(2.1860685)"
           d="m 1194.3699,21.076536 a 10.17618,10.176183 0 0 1 -10.1762,10.176183 10.17618,10.176183 0 0 1 -10.1762,-10.176183 10.17618,10.176183 0 0 1 10.1762,-10.176183 10.17618,10.176183 0 0 1 10.1762,10.176183 z" /><path
           id="circle133"
           style="fill:#005472;stroke:#ffffff;stroke-width:0.593422;stroke-linecap:round;stroke-linejoin:round"
           transform="rotate(2.1860685)"
           d="m 1235.2312,19.270758 a 10.176185,10.176185 0 0 1 -10.1761,10.176184 10.176185,10.176185 0 0 1 -10.1762,-10.176184 10.176185,10.176185 0 0 1 10.1762,-10.176185 10.176185,10.176185 0 0 1 10.1761,10.176185 z" /><g
           id="g181"
           transform="matrix(0.31422535,0,0,0.31422535,1087.1778,15.767692)"
           style="stroke:#ffffff;stroke-opacity:1"><path
             id="rect180"
             style="opacity:1;fill:none;stroke-width:1.8"
             transform="rotate(90)"
             d="m 350.62955,-388.49982 h 19.76599 c 1.16049,0 2.09476,0.93427 2.09476,2.09476 v 26.77363 c 0,1.16049 -0.93427,2.09476 -2.09476,2.09476 h -19.76599 c -1.1605,0 -2.09476,-0.93427 -2.09476,-2.09476 v -26.77363 c 0,-1.16049 0.93426,-2.09476 2.09476,-2.09476 z" /><path
             style="font-weight:bold;font-size:11.5192px;line-height:0;font-family:'Open Sans';-inkscape-font-specification:'Open Sans Bold';text-align:center;text-anchor:middle;fill:#ffffff;stroke-width:0.816327;stroke-linecap:round;stroke-linejoin:round"
             d="m 367.15178,363.48235 -5.58524,-2.46358 v -0.80432 l 5.58524,-2.7898 v 1.3499 l -3.84723,1.783 3.84723,1.58052 z m 8.18943,-7.08138 -3.06541,8.22318 h -1.55802 l 3.06542,-8.22318 z m 3.54351,5.7371 3.84723,-1.58052 -3.84723,-1.783 v -1.3499 l 5.58523,2.7898 v 0.80432 l -5.58523,2.46358 z"
             id="text180"
             aria-label="&lt; / &gt;" /><path
             id="rect181"
             style="opacity:1;vector-effect:none;fill:#ffffff;stroke-width:1.37703;stop-color:#000000;stop-opacity:1"
             transform="rotate(90)"
             d="m 371.47676,-390.84244 h 1.32807 c 0.15173,0 0.27388,0.12215 0.27388,0.27388 v 35.10064 c 0,0.15172 -0.12215,0.27387 -0.27388,0.27387 h -1.32807 c -0.15173,0 -0.27388,-0.12215 -0.27388,-0.27387 v -35.10064 c 0,-0.15173 0.12215,-0.27388 0.27388,-0.27388 z" /></g><g
           id="g180"
           transform="matrix(0.31328924,0,0,0.31328924,1078.232,-48.000797)"
           style="fill:none;fill-opacity:1;stroke:#ffff72;stroke-opacity:1"><path
             id="rect175"
             style="opacity:1;stroke:#ffffff;stroke-width:1.8"
             d="m 323.02329,349.14273 h 19.76598 c 1.1605,0 2.09476,0.93426 2.09476,2.09476 v 26.77362 c 0,1.1605 -0.93426,2.09476 -2.09476,2.09476 h -19.76598 c -1.1605,0 -2.09476,-0.93426 -2.09476,-2.09476 v -26.77362 c 0,-1.1605 0.93426,-2.09476 2.09476,-2.09476 z" /><path
             style="font-weight:bold;font-size:8.45748px;line-height:0;font-family:'Open Sans';-inkscape-font-specification:'Open Sans Bold';text-align:center;text-anchor:middle;fill:#ffffff;stroke:#ffffff;stroke-width:0.599349;stroke-linecap:round;stroke-linejoin:round"
             d="m 329.44038,376.94791 h -1.46189 l -1.40407,-2.28369 -1.40408,2.28369 h -1.37103 l 2.00287,-3.11374 -1.87486,-2.92378 h 1.41234 l 1.30083,2.17218 1.27606,-2.17218 h 1.37929 l -1.8955,2.99398 z"
             id="text176"
             aria-label="X" /><path
             style="font-variation-settings:normal;opacity:1;vector-effect:none;fill:none;fill-opacity:1;stroke:#ffffff;stroke-width:1.8;stroke-linecap:round;stroke-linejoin:round;stroke-miterlimit:4;stroke-dasharray:none;stroke-dashoffset:0;stroke-opacity:1;-inkscape-stroke:none;stop-color:#000000;stop-opacity:1"
             d="m 324.39963,364.96687 1.71667,1.71667 4.11848,-4.11848"
             id="path176"
             sodipodi:nodetypes="ccc" /><path
             style="font-variation-settings:normal;opacity:1;vector-effect:none;fill:none;fill-opacity:1;stroke:#ffffff;stroke-width:1.8;stroke-linecap:round;stroke-linejoin:round;stroke-miterlimit:4;stroke-dasharray:none;stroke-dashoffset:0;stroke-opacity:1;-inkscape-stroke:none;stop-color:#000000;stop-opacity:1"
             d="m 324.39963,356.02122 1.71667,1.71667 4.11848,-4.11848"
             id="path177"
             sodipodi:nodetypes="ccc" /><path
             style="font-variation-settings:normal;opacity:1;vector-effect:none;fill:none;fill-opacity:1;stroke:#ffffff;stroke-width:1.8;stroke-linecap:round;stroke-linejoin:round;stroke-miterlimit:4;stroke-dasharray:none;stroke-dashoffset:0;stroke-opacity:1;-inkscape-stroke:none;stop-color:#000000;stop-opacity:1"
             d="m 334.48339,355.67863 h 6.52518"
             id="path178" /><path
             style="font-variation-settings:normal;opacity:1;vector-effect:none;fill:none;fill-opacity:1;stroke:#ffffff;stroke-width:1.8;stroke-linecap:round;stroke-linejoin:round;stroke-miterlimit:4;stroke-dasharray:none;stroke-dashoffset:0;stroke-opacity:1;-inkscape-stroke:none;stop-color:#000000;stop-opacity:1"
             d="m 334.48339,364.6243 h 6.52518"
             id="path179" /><path
             style="font-variation-settings:normal;opacity:1;vector-effect:none;fill:none;fill-opacity:1;stroke:#ffffff;stroke-width:1.8;stroke-linecap:round;stroke-linejoin:round;stroke-miterlimit:4;stroke-dasharray:none;stroke-dashoffset:0;stroke-opacity:1;-inkscape-stroke:none;stop-color:#000000;stop-opacity:1"
             d="m 334.48339,373.56997 h 6.52518"
             id="path180" /></g><g
           id="g188"
           transform="matrix(0.28593676,0,0,0.28593676,1064.0073,-1.7964028)"
           style="stroke:#ffffff;stroke-opacity:1"><path
             id="rect182"
             style="fill:none;stroke-width:1.8"
             transform="rotate(90)"
             d="m 392.5033,-388.49982 h 19.76598 c 1.1605,0 2.09476,0.93427 2.09476,2.09476 v 26.77363 c 0,1.16049 -0.93426,2.09476 -2.09476,2.09476 H 392.5033 c -1.1605,0 -2.09476,-0.93427 -2.09476,-2.09476 v -26.77363 c 0,-1.16049 0.93426,-2.09476 2.09476,-2.09476 z" /><path
             style="font-variation-settings:normal;opacity:1;vector-effect:none;fill:none;fill-opacity:1;stroke:#ffffff;stroke-width:1.8;stroke-linecap:round;stroke-linejoin:round;stroke-miterlimit:4;stroke-dasharray:none;stroke-dashoffset:0;stroke-opacity:1;-inkscape-stroke:none;stop-color:#000000;stop-opacity:1"
             d="M 361.15839,396.04648 H 374.9358"
             id="path182" /><path
             style="font-variation-settings:normal;opacity:1;vector-effect:none;fill:none;fill-opacity:1;stroke:#ffffff;stroke-width:1.8;stroke-linecap:round;stroke-linejoin:round;stroke-miterlimit:4;stroke-dasharray:none;stroke-dashoffset:0;stroke-opacity:1;-inkscape-stroke:none;stop-color:#000000;stop-opacity:1"
             d="M 361.15839,400.85011 H 373.3483"
             id="path183"
             sodipodi:nodetypes="cc" /><path
             style="font-variation-settings:normal;opacity:1;vector-effect:none;fill:none;fill-opacity:1;stroke:#ffffff;stroke-width:1.8;stroke-linecap:round;stroke-linejoin:round;stroke-miterlimit:4;stroke-dasharray:none;stroke-dashoffset:0;stroke-opacity:1;-inkscape-stroke:none;stop-color:#000000;stop-opacity:1"
             d="m 361.15839,405.65374 h 9.54408"
             id="path184"
             sodipodi:nodetypes="cc" /><path
             id="path185"
             style="opacity:1;vector-effect:none;fill:none;stroke-width:1.28601;stroke-linecap:round;stroke-linejoin:round"
             transform="rotate(-90)"
             d="m -402.99493,379.87857 a 4.356998,4.356997 0 0 1 -2.68965,4.02534 4.356998,4.356997 0 0 1 -4.74821,-0.94448 4.356998,4.356997 0 0 1 -0.94448,-4.74821 4.356998,4.356997 0 0 1 4.02534,-2.68965 v 4.357 z" /><path
             style="font-variation-settings:normal;opacity:1;vector-effect:none;fill:none;fill-opacity:1;stroke:#ffffff;stroke-width:1.8;stroke-linecap:round;stroke-linejoin:round;stroke-miterlimit:4;stroke-dasharray:none;stroke-dashoffset:0;stroke-opacity:1;-inkscape-stroke:none;stop-color:#000000;stop-opacity:1"
             d="M 361.15839,396.04648 H 374.9358"
             id="path186" /><path
             style="font-variation-settings:normal;opacity:1;vector-effect:none;fill:none;fill-opacity:1;stroke:#ffffff;stroke-width:1.8;stroke-linecap:round;stroke-linejoin:round;stroke-miterlimit:4;stroke-dasharray:none;stroke-dashoffset:0;stroke-opacity:1;-inkscape-stroke:none;stop-color:#000000;stop-opacity:1"
             d="m 366.12954,390.13459 6.88871,-6.35 6.8887,6.35"
             id="path187"
             sodipodi:nodetypes="ccc" /><path
             style="font-variation-settings:normal;opacity:1;vector-effect:none;fill:none;fill-opacity:1;stroke:#ffffff;stroke-width:1.8;stroke-linecap:round;stroke-linejoin:round;stroke-miterlimit:4;stroke-dasharray:none;stroke-dashoffset:0;stroke-opacity:1;-inkscape-stroke:none;stop-color:#000000;stop-opacity:1"
             d="m 349.61628,412.39221 9.74211,-9.7421"
             id="path188" /></g><g
           id="g175"
           transform="matrix(0.31328924,0,0,0.31328924,1129.8399,-48.246613)"
           style="stroke:#ff5472;stroke-opacity:1"><path
             id="rect174"
             style="opacity:1;fill:none;stroke:#ffffff;stroke-width:1.8"
             d="m 288.84586,349.14273 h 19.76598 c 1.1605,0 2.09476,0.93426 2.09476,2.09476 v 26.77362 c 0,1.1605 -0.93426,2.09476 -2.09476,2.09476 h -19.76598 c -1.1605,0 -2.09476,-0.93426 -2.09476,-2.09476 v -26.77362 c 0,-1.1605 0.93426,-2.09476 2.09476,-2.09476 z" /><path
             style="font-weight:bold;font-size:8.45748px;line-height:0;font-family:'Open Sans';-inkscape-font-specification:'Open Sans Bold';text-align:center;text-anchor:middle;fill:#feffff;stroke:#ffffff;stroke-width:0.599349;stroke-linecap:round;stroke-linejoin:round"
             d="m 296.30332,358.9343 h -1.46188 l -1.40408,-2.28369 -1.40407,2.28369 h -1.37104 l 2.00287,-3.11374 -1.87485,-2.92378 h 1.41233 l 1.30084,2.17218 1.27605,-2.17218 h 1.3793 l -1.8955,2.99398 z"
             id="text174"
             aria-label="X" /><path
             style="font-weight:bold;font-size:8.45748px;line-height:0;font-family:'Open Sans';-inkscape-font-specification:'Open Sans Bold';text-align:center;text-anchor:middle;fill:#feffff;stroke:#ffffff;stroke-width:0.599349;stroke-linecap:round;stroke-linejoin:round"
             d="m 307.17469,376.94791 h -1.46189 l -1.40407,-2.28369 -1.40407,2.28369 h -1.37104 l 2.00287,-3.11374 -1.87485,-2.92378 h 1.41233 l 1.30083,2.17218 1.27606,-2.17218 h 1.3793 l -1.8955,2.99398 z"
             id="text175"
             aria-label="X" /><path
             style="fill:none;stroke:#ffffff;stroke-width:1.5;stroke-linecap:round;stroke-linejoin:miter;stroke-dasharray:none;stroke-opacity:1;marker-end:url(#RoundedArrow)"
             d="m 293.48279,376.048 c 0,0 -1.16463,-7.26239 0.95554,-9.7431 2.07873,-2.43222 7.24122,0.0439 9.29012,-2.41345 1.82212,-2.1854 0.6257,-8.51312 0.6257,-8.51312"
             id="path175"
             sodipodi:nodetypes="caac" /></g><path
           id="rect210"
           style="fill:none;stroke:#ffffff;stroke-width:0.565606"
           transform="rotate(90)"
           d="m 101.669,-1241.8044 h 6.21097 c 0.36466,0 0.65823,0.2935 0.65823,0.6582 v 8.4129 c 0,0.3647 -0.29357,0.6583 -0.65823,0.6583 H 101.669 c -0.36466,0 -0.65823,-0.2936 -0.65823,-0.6583 v -8.4129 c 0,-0.3647 0.29357,-0.6582 0.65823,-0.6582 z" /><path
           id="rect211"
           style="vector-effect:none;fill:#ffffff;stroke:#ffffff;stroke-width:0.432698;stop-color:#000000"
           transform="rotate(90)"
           d="m 108.21971,-1242.5405 h 0.41731 c 0.0477,0 0.0861,0.038 0.0861,0.086 v 11.0295 c 0,0.048 -0.0384,0.086 -0.0861,0.086 h -0.41731 c -0.0477,0 -0.0861,-0.038 -0.0861,-0.086 v -11.0295 c 0,-0.048 0.0384,-0.086 0.0861,-0.086 z" /><g
           id="g212"
           transform="translate(-3.2489313,-1.8979176)"><path
             id="rect212"
             style="opacity:1;fill:#ffffff;stroke:#ffffff;stroke-width:0.388638;stroke-linecap:round;stroke-linejoin:round"
             transform="rotate(150)"
             d="m -1026.1979,-710.29346 h 4.7476 v 0.35962 h -4.7476 z" /><path
             id="path212"
             style="opacity:1;fill:#ffffff;fill-opacity:1;stroke:#ffffff;stroke-width:0.424887;stroke-linecap:round;stroke-linejoin:round;stroke-dasharray:none;stroke-opacity:1"
             d="m 1238.6788,104.37056 c 0.1955,-0.11284 0.4405,-0.0542 0.5474,0.13096 0.1069,0.18518 0.035,0.42672 -0.1602,0.53956 -0.1954,0.1128 -0.3948,0.15547 -1.2338,0.40579 0.421,-0.88587 0.6512,-0.96351 0.8466,-1.07631"
             sodipodi:nodetypes="csscc" /></g><path
           style="fill:none;stroke:#ffffff;stroke-width:0.265;stroke-linecap:round;stroke-linejoin:round;stroke-dasharray:none;stroke-opacity:1"
           d="m 1234.219,104.17406 c 0,0 -0.7346,1.90408 -0.1041,2.39505 1.0692,0.83261 2.5491,-1.32835 3.8945,-1.16629 1.073,0.12924 0.7872,1.18046 2.7961,1.64101"
           id="path225"
           sodipodi:nodetypes="caac" /></g></g></g></svg>
